# MagicaVoxel @ ephtracy

# material
mtllib -new(000).mtl
usemtl palette

# normals
vn -1 0 0
vn 1 0 0
vn 0 0 1
vn 0 0 -1
vn 0 -1 0
vn 0 1 0

# texcoords
vt 0.0332031 0.5
vt 0.0917969 0.5
vt 0.306641 0.5
vt 0.642578 0.5
vt 0.853516 0.5
vt 0.955078 0.5
vt 0.958984 0.5
vt 0.990234 0.5

# verts and faces
v -5 6 -4.5
v -5 6 -6.5
v -5 12 -4.5
v -5 12 -6.5
f -2/1/1 -3/1/1 -4/1/1
f -1/1/1 -3/1/1 -2/1/1
v -4 2 2.5
v -4 2 1.5
v -4 4 2.5
v -4 4 1.5
v -4 8 4.5
v -4 8 -4.5
v -4 12 4.5
v -4 12 -4.5
f -6/8/1 -7/8/1 -8/8/1
f -5/8/1 -7/8/1 -6/8/1
f -2/7/1 -3/7/1 -4/7/1
f -1/7/1 -3/7/1 -2/7/1
v -3 6 3.5
v -3 6 -3.5
v -3 7 3.5
v -3 7 -3.5
v -3 8 3.5
v -3 8 -3.5
f -4/4/1 -5/4/1 -6/4/1
f -3/4/1 -5/4/1 -4/4/1
f -2/7/1 -3/7/1 -4/7/1
f -1/7/1 -3/7/1 -2/7/1
v -2 6 6.5
v -2 6 4.5
v -2 8 4.5
v -2 9 6.5
v -2 9 4.5
v -2 10 6.5
v -2 10 4.5
v -2 12 6.5
v -2 12 4.5
v -2 12 2.5
v -2 12 -2.5
v -2 13 2.5
v -2 13 -2.5
v -2 15 2.5
v -2 15 -2.5
f -13/1/1 -14/1/1 -15/1/1
f -12/1/1 -13/1/1 -15/1/1
f -11/1/1 -13/1/1 -12/1/1
f -10/5/1 -11/5/1 -12/5/1
f -9/5/1 -11/5/1 -10/5/1
f -8/1/1 -9/1/1 -10/1/1
f -7/1/1 -9/1/1 -8/1/1
f -4/1/1 -5/1/1 -6/1/1
f -3/1/1 -5/1/1 -4/1/1
f -2/5/1 -3/5/1 -4/5/1
f -1/5/1 -3/5/1 -2/5/1
v -1 12 3.5
v -1 12 2.5
v -1 12 -2.5
v -1 12 -3.5
v -1 13 3.5
v -1 13 2.5
v -1 13 -2.5
v -1 13 -3.5
f -4/1/1 -7/1/1 -8/1/1
f -3/1/1 -7/1/1 -4/1/1
f -2/1/1 -5/1/1 -6/1/1
f -1/1/1 -5/1/1 -2/1/1
v 0 4 2.5
v 0 4 1.5
v 0 4 -1.5
v 0 4 -2.5
v 0 6 2.5
v 0 6 1.5
v 0 6 -1.5
v 0 6 -2.5
f -4/4/1 -7/4/1 -8/4/1
f -3/4/1 -7/4/1 -4/4/1
f -2/4/1 -5/4/1 -6/4/1
f -1/4/1 -5/4/1 -2/4/1
v 1 2 -1.5
v 1 2 -2.5
v 1 4 -1.5
v 1 4 -2.5
f -2/4/1 -3/4/1 -4/4/1
f -1/4/1 -3/4/1 -2/4/1
v 2 0 -1.5
v 2 0 -2.5
v 2 1 -1.5
v 2 1 -2.5
v 2 2 -1.5
v 2 2 -2.5
f -4/8/1 -5/8/1 -6/8/1
f -3/8/1 -5/8/1 -4/8/1
f -2/4/1 -3/4/1 -4/4/1
f -1/4/1 -3/4/1 -2/4/1
v -3 2 2.5
v -3 2 1.5
v -3 3 2.5
v -3 3 1.5
f -4/8/2 -3/8/2 -2/8/2
f -2/8/2 -3/8/2 -1/8/2
v -2 6 -4.5
v -2 6 -6.5
v -2 8 -4.5
v -2 9 -4.5
v -2 9 -6.5
f -5/1/2 -4/1/2 -3/1/2
f -3/1/2 -4/1/2 -2/1/2
f -2/1/2 -4/1/2 -1/1/2
v 0 12 3.5
v 0 12 2.5
v 0 12 -2.5
v 0 12 -3.5
v 0 13 3.5
v 0 13 2.5
v 0 13 -2.5
v 0 13 -3.5
f -8/1/2 -7/1/2 -4/1/2
f -4/1/2 -7/1/2 -3/1/2
f -6/1/2 -5/1/2 -2/1/2
f -2/1/2 -5/1/2 -1/1/2
v 1 3 2.5
v 1 3 1.5
v 1 4 -1.5
v 1 4 -2.5
v 1 6 2.5
v 1 6 1.5
v 1 6 -1.5
v 1 6 -2.5
v 1 9 6.5
v 1 9 4.5
v 1 9 -4.5
v 1 9 -6.5
v 1 10 6.5
v 1 10 4.5
v 1 12 6.5
v 1 12 4.5
v 1 12 -4.5
v 1 12 -6.5
f -18/4/2 -17/4/2 -14/4/2
f -14/4/2 -17/4/2 -13/4/2
f -16/4/2 -15/4/2 -12/4/2
f -12/4/2 -15/4/2 -11/4/2
f -10/5/2 -9/5/2 -6/5/2
f -6/5/2 -9/5/2 -5/5/2
f -6/1/2 -5/1/2 -4/1/2
f -4/1/2 -5/1/2 -3/1/2
f -8/1/2 -7/1/2 -2/1/2
f -2/1/2 -7/1/2 -1/1/2
v 2 2 -1.5
v 2 2 -2.5
v 2 4 -1.5
v 2 4 -2.5
v 2 12 2.5
v 2 12 1.5
v 2 12 0.5
v 2 12 -0.5
v 2 12 -1.5
v 2 12 -2.5
v 2 13 2.5
v 2 13 1.5
v 2 13 0.5
v 2 13 -0.5
v 2 13 -1.5
v 2 13 -2.5
v 2 14 2.5
v 2 14 0.5
v 2 14 -0.5
v 2 14 -2.5
v 2 15 2.5
v 2 15 0.5
v 2 15 -0.5
v 2 15 -2.5
f -24/4/2 -23/4/2 -22/4/2
f -22/4/2 -23/4/2 -21/4/2
f -20/1/2 -19/1/2 -14/1/2
f -19/6/2 -18/6/2 -13/6/2
f -14/1/2 -19/1/2 -13/1/2
f -13/6/2 -18/6/2 -12/6/2
f -17/6/2 -16/6/2 -11/6/2
f -16/1/2 -15/1/2 -10/1/2
f -11/6/2 -16/6/2 -10/6/2
f -10/1/2 -15/1/2 -9/1/2
f -8/5/2 -7/5/2 -4/5/2
f -7/2/2 -6/2/2 -3/2/2
f -4/5/2 -7/5/2 -3/5/2
f -6/5/2 -5/5/2 -2/5/2
f -3/2/2 -6/2/2 -2/2/2
f -2/5/2 -5/5/2 -1/5/2
v 3 1 -1.5
v 3 1 -2.5
v 3 2 -1.5
v 3 2 -2.5
v 3 6 3.5
v 3 6 0.5
v 3 6 -0.5
v 3 6 -3.5
v 3 7 3.5
v 3 7 0.5
v 3 7 -0.5
v 3 7 -3.5
v 3 8 3.5
v 3 8 -3.5
v 3 12 0.5
v 3 12 -0.5
v 3 13 0.5
v 3 13 -0.5
f -18/4/2 -17/4/2 -16/4/2
f -16/4/2 -17/4/2 -15/4/2
f -14/4/2 -13/4/2 -10/4/2
f -13/2/2 -12/2/2 -9/2/2
f -10/4/2 -13/4/2 -9/4/2
f -12/4/2 -11/4/2 -8/4/2
f -9/2/2 -12/2/2 -8/2/2
f -8/4/2 -11/4/2 -7/4/2
f -10/7/2 -9/7/2 -6/7/2
f -9/7/2 -8/7/2 -6/7/2
f -8/7/2 -7/7/2 -6/7/2
f -6/7/2 -7/7/2 -5/7/2
f -4/1/2 -3/1/2 -2/1/2
f -2/1/2 -3/1/2 -1/1/2
v 4 0 -1.5
v 4 0 -2.5
v 4 1 -1.5
v 4 1 -2.5
v 4 8 4.5
v 4 8 -4.5
v 4 9 4.5
v 4 12 4.5
v 4 12 -4.5
v 4 13 2.5
v 4 13 -2.5
v 4 14 2.5
v 4 14 -2.5
f -13/8/2 -12/8/2 -11/8/2
f -11/8/2 -12/8/2 -10/8/2
f -9/7/2 -8/7/2 -7/7/2
f -7/7/2 -8/7/2 -6/7/2
f -6/7/2 -8/7/2 -5/7/2
f -4/5/2 -3/5/2 -2/5/2
f -2/5/2 -3/5/2 -1/5/2
v 5 6 6.5
v 5 6 4.5
v 5 9 6.5
v 5 9 4.5
f -4/1/2 -3/1/2 -2/1/2
f -2/1/2 -3/1/2 -1/1/2
v -2 6 6.5
v -2 9 6.5
v -2 10 6.5
v -2 12 6.5
v 1 9 6.5
v 1 10 6.5
v 1 12 6.5
v 5 6 6.5
v 5 9 6.5
f -5/1/3 -8/1/3 -9/1/3
f -5/5/3 -7/5/3 -8/5/3
f -4/1/3 -6/1/3 -7/1/3
f -4/5/3 -7/5/3 -5/5/3
f -3/1/3 -6/1/3 -4/1/3
f -2/1/3 -5/1/3 -9/1/3
f -1/1/3 -5/1/3 -2/1/3
v -4 8 4.5
v -4 12 4.5
v -2 8 4.5
v -2 9 4.5
v -2 10 4.5
v -2 12 4.5
v 1 9 4.5
v 1 10 4.5
v 1 12 4.5
v 4 9 4.5
v 4 12 4.5
f -9/7/3 -10/7/3 -11/7/3
f -8/7/3 -10/7/3 -9/7/3
f -7/7/3 -10/7/3 -8/7/3
f -6/7/3 -10/7/3 -7/7/3
f -2/7/3 -4/7/3 -5/7/3
f -2/7/3 -3/7/3 -4/7/3
f -1/7/3 -3/7/3 -2/7/3
v -3 6 3.5
v -3 7 3.5
v -3 8 3.5
v -1 12 3.5
v -1 13 3.5
v 0 12 3.5
v 0 13 3.5
v 3 6 3.5
v 3 7 3.5
v 3 8 3.5
f -5/1/3 -6/1/3 -7/1/3
f -4/1/3 -6/1/3 -5/1/3
f -3/4/3 -9/4/3 -10/4/3
f -2/7/3 -8/7/3 -9/7/3
f -2/4/3 -9/4/3 -3/4/3
f -1/7/3 -8/7/3 -2/7/3
v -4 2 2.5
v -4 4 2.5
v -3 2 2.5
v -3 3 2.5
v -3 4 2.5
v -2 12 2.5
v -2 13 2.5
v -2 15 2.5
v -1 12 2.5
v -1 13 2.5
v 0 4 2.5
v 0 6 2.5
v 0 12 2.5
v 0 13 2.5
v 1 3 2.5
v 1 6 2.5
v 2 12 2.5
v 2 13 2.5
v 2 14 2.5
v 2 15 2.5
v 4 13 2.5
v 4 14 2.5
f -20/8/3 -21/8/3 -22/8/3
f -19/8/3 -21/8/3 -20/8/3
f -18/8/3 -21/8/3 -19/8/3
f -14/1/3 -16/1/3 -17/1/3
f -13/5/3 -15/5/3 -16/5/3
f -13/1/3 -16/1/3 -14/1/3
f -12/4/3 -18/4/3 -19/4/3
f -9/5/3 -15/5/3 -13/5/3
f -8/4/3 -11/4/3 -12/4/3
f -8/4/3 -12/4/3 -19/4/3
f -7/4/3 -11/4/3 -8/4/3
f -6/1/3 -9/1/3 -10/1/3
f -5/5/3 -15/5/3 -9/5/3
f -5/1/3 -9/1/3 -6/1/3
f -4/5/3 -15/5/3 -5/5/3
f -3/5/3 -15/5/3 -4/5/3
f -2/5/3 -4/5/3 -5/5/3
f -1/5/3 -4/5/3 -2/5/3
v 2 12 0.5
v 2 13 0.5
v 3 12 0.5
v 3 13 0.5
f -2/1/3 -3/1/3 -4/1/3
f -1/1/3 -3/1/3 -2/1/3
v 0 4 -1.5
v 0 6 -1.5
v 1 2 -1.5
v 1 4 -1.5
v 1 6 -1.5
v 2 0 -1.5
v 2 1 -1.5
v 2 2 -1.5
v 2 4 -1.5
v 3 1 -1.5
v 3 2 -1.5
v 4 0 -1.5
v 4 1 -1.5
f -10/4/3 -12/4/3 -13/4/3
f -9/4/3 -12/4/3 -10/4/3
f -6/4/3 -10/4/3 -11/4/3
f -5/4/3 -10/4/3 -6/4/3
f -4/8/3 -7/8/3 -8/8/3
f -4/4/3 -6/4/3 -7/4/3
f -3/4/3 -6/4/3 -4/4/3
f -2/8/3 -4/8/3 -8/8/3
f -1/8/3 -4/8/3 -2/8/3
v -5 6 -4.5
v -5 12 -4.5
v -4 8 -4.5
v -4 12 -4.5
v -2 6 -4.5
v -2 8 -4.5
f -4/1/3 -5/1/3 -6/1/3
f -3/1/3 -5/1/3 -4/1/3
f -2/1/3 -4/1/3 -6/1/3
f -1/1/3 -4/1/3 -2/1/3
v -2 6 4.5
v -2 8 4.5
v 4 8 4.5
v 4 9 4.5
v 5 6 4.5
v 5 9 4.5
f -6/1/4 -5/1/4 -4/1/4
f -6/1/4 -4/1/4 -2/1/4
f -4/1/4 -3/1/4 -2/1/4
f -2/1/4 -3/1/4 -1/1/4
v -4 2 1.5
v -4 4 1.5
v -3 2 1.5
v -3 3 1.5
v -3 4 1.5
v 0 4 1.5
v 0 6 1.5
v 1 3 1.5
v 1 6 1.5
f -9/8/4 -8/8/4 -7/8/4
f -7/8/4 -8/8/4 -6/8/4
f -6/8/4 -8/8/4 -5/8/4
f -6/4/4 -5/4/4 -4/4/4
f -6/4/4 -4/4/4 -2/4/4
f -4/4/4 -3/4/4 -2/4/4
f -2/4/4 -3/4/4 -1/4/4
v 2 12 -0.5
v 2 13 -0.5
v 3 12 -0.5
v 3 13 -0.5
f -4/1/4 -3/1/4 -2/1/4
f -2/1/4 -3/1/4 -1/1/4
v -2 12 -2.5
v -2 13 -2.5
v -2 15 -2.5
v -1 12 -2.5
v -1 13 -2.5
v 0 4 -2.5
v 0 6 -2.5
v 0 12 -2.5
v 0 13 -2.5
v 1 2 -2.5
v 1 4 -2.5
v 1 6 -2.5
v 2 0 -2.5
v 2 1 -2.5
v 2 2 -2.5
v 2 4 -2.5
v 2 12 -2.5
v 2 13 -2.5
v 2 14 -2.5
v 2 15 -2.5
v 3 1 -2.5
v 3 2 -2.5
v 4 0 -2.5
v 4 1 -2.5
v 4 13 -2.5
v 4 14 -2.5
f -26/1/4 -25/1/4 -23/1/4
f -25/5/4 -24/5/4 -22/5/4
f -23/1/4 -25/1/4 -22/1/4
f -22/5/4 -24/5/4 -18/5/4
f -21/4/4 -20/4/4 -16/4/4
f -16/4/4 -20/4/4 -15/4/4
f -17/4/4 -16/4/4 -12/4/4
f -12/4/4 -16/4/4 -11/4/4
f -19/1/4 -18/1/4 -10/1/4
f -18/5/4 -24/5/4 -9/5/4
f -10/1/4 -18/1/4 -9/1/4
f -9/5/4 -24/5/4 -8/5/4
f -8/5/4 -24/5/4 -7/5/4
f -14/8/4 -13/8/4 -6/8/4
f -13/4/4 -12/4/4 -6/4/4
f -6/4/4 -12/4/4 -5/4/4
f -14/8/4 -6/8/4 -4/8/4
f -4/8/4 -6/8/4 -3/8/4
f -9/5/4 -8/5/4 -2/5/4
f -2/5/4 -8/5/4 -1/5/4
v -3 6 -3.5
v -3 7 -3.5
v -3 8 -3.5
v -1 12 -3.5
v -1 13 -3.5
v 0 12 -3.5
v 0 13 -3.5
v 3 6 -3.5
v 3 7 -3.5
v 3 8 -3.5
f -7/1/4 -6/1/4 -5/1/4
f -5/1/4 -6/1/4 -4/1/4
f -10/4/4 -9/4/4 -3/4/4
f -9/7/4 -8/7/4 -2/7/4
f -3/4/4 -9/4/4 -2/4/4
f -2/7/4 -8/7/4 -1/7/4
v -2 8 -4.5
v -2 9 -4.5
v -1 9 -4.5
v 1 9 -4.5
v 1 12 -4.5
v 4 8 -4.5
v 4 12 -4.5
f -7/7/4 -6/7/4 -5/7/4
f -7/7/4 -5/7/4 -4/7/4
f -7/7/4 -4/7/4 -2/7/4
f -4/7/4 -3/7/4 -2/7/4
f -2/7/4 -3/7/4 -1/7/4
v -5 6 -6.5
v -5 12 -6.5
v -2 6 -6.5
v -2 9 -6.5
v -2 12 -6.5
v -1 9 -6.5
v -1 12 -6.5
v 1 9 -6.5
v 1 12 -6.5
f -9/1/4 -8/1/4 -7/1/4
f -7/1/4 -8/1/4 -6/1/4
f -6/1/4 -8/1/4 -5/1/4
f -6/5/4 -5/5/4 -4/5/4
f -4/5/4 -5/5/4 -3/5/4
f -4/1/4 -3/1/4 -2/1/4
f -2/1/4 -3/1/4 -1/1/4
v 2 0 -1.5
v 4 0 -1.5
v 2 0 -2.5
v 4 0 -2.5
f -2/8/5 -3/8/5 -4/8/5
f -1/8/5 -3/8/5 -2/8/5
v -4 2 2.5
v -3 2 2.5
v -4 2 1.5
v -3 2 1.5
v 1 2 -1.5
v 2 2 -1.5
v 1 2 -2.5
v 2 2 -2.5
f -6/8/5 -7/8/5 -8/8/5
f -5/8/5 -7/8/5 -6/8/5
f -2/4/5 -3/4/5 -4/4/5
f -1/4/5 -3/4/5 -2/4/5
v -3 3 2.5
v 1 3 2.5
v -3 3 1.5
v 1 3 1.5
f -2/4/5 -3/4/5 -4/4/5
f -1/4/5 -3/4/5 -2/4/5
v 0 4 -1.5
v 1 4 -1.5
v 0 4 -2.5
v 1 4 -2.5
f -2/4/5 -3/4/5 -4/4/5
f -1/4/5 -3/4/5 -2/4/5
v -2 6 6.5
v 5 6 6.5
v -2 6 4.5
v 5 6 4.5
v -3 6 3.5
v 3 6 3.5
v 0 6 2.5
v 1 6 2.5
v 0 6 1.5
v 1 6 1.5
v 2 6 0.5
v 3 6 0.5
v 2 6 -0.5
v 3 6 -0.5
v 0 6 -1.5
v 1 6 -1.5
v 0 6 -2.5
v 1 6 -2.5
v -3 6 -3.5
v 3 6 -3.5
v -5 6 -4.5
v -2 6 -4.5
v -5 6 -6.5
v -2 6 -6.5
f -22/1/5 -23/1/5 -24/1/5
f -21/1/5 -23/1/5 -22/1/5
f -18/4/5 -19/4/5 -20/4/5
f -17/4/5 -19/4/5 -18/4/5
f -16/4/5 -18/4/5 -20/4/5
f -15/4/5 -19/4/5 -17/4/5
f -14/4/5 -19/4/5 -15/4/5
f -14/4/5 -15/4/5 -16/4/5
f -13/4/5 -19/4/5 -14/4/5
f -12/4/5 -14/4/5 -16/4/5
f -12/2/5 -13/2/5 -14/2/5
f -11/2/5 -13/2/5 -12/2/5
f -10/4/5 -16/4/5 -20/4/5
f -10/4/5 -12/4/5 -16/4/5
f -10/4/5 -11/4/5 -12/4/5
f -9/4/5 -11/4/5 -10/4/5
f -8/4/5 -10/4/5 -20/4/5
f -7/4/5 -11/4/5 -9/4/5
f -6/4/5 -8/4/5 -20/4/5
f -6/4/5 -7/4/5 -8/4/5
f -5/4/5 -11/4/5 -7/4/5
f -5/4/5 -7/4/5 -6/4/5
f -2/1/5 -3/1/5 -4/1/5
f -1/1/5 -3/1/5 -2/1/5
v -4 8 4.5
v -2 8 4.5
v 4 8 4.5
v -3 8 3.5
v 3 8 3.5
v -3 8 -3.5
v 3 8 -3.5
v -4 8 -4.5
v -2 8 -4.5
v 4 8 -4.5
f -7/7/5 -9/7/5 -10/7/5
f -7/7/5 -8/7/5 -9/7/5
f -6/7/5 -8/7/5 -7/7/5
f -5/7/5 -7/7/5 -10/7/5
f -4/7/5 -8/7/5 -6/7/5
f -3/7/5 -5/7/5 -10/7/5
f -3/7/5 -4/7/5 -5/7/5
f -2/7/5 -4/7/5 -3/7/5
f -1/7/5 -8/7/5 -4/7/5
f -1/7/5 -4/7/5 -2/7/5
v -2 9 -4.5
v -1 9 -4.5
v 1 9 -4.5
v -2 9 -6.5
v -1 9 -6.5
v 1 9 -6.5
f -3/5/5 -5/5/5 -6/5/5
f -2/1/5 -4/1/5 -5/1/5
f -2/5/5 -5/5/5 -3/5/5
f -1/1/5 -4/1/5 -2/1/5
v 2 13 2.5
v 4 13 2.5
v 2 13 1.5
v 2 13 0.5
v 3 13 0.5
v 2 13 -0.5
v 3 13 -0.5
v 2 13 -1.5
v 2 13 -2.5
v 4 13 -2.5
f -8/5/5 -9/5/5 -10/5/5
f -7/5/5 -9/5/5 -8/5/5
f -6/5/5 -9/5/5 -7/5/5
f -4/5/5 -9/5/5 -6/5/5
f -3/5/5 -4/5/5 -5/5/5
f -2/5/5 -4/5/5 -3/5/5
f -1/5/5 -9/5/5 -4/5/5
f -1/5/5 -4/5/5 -2/5/5
v 3 1 -1.5
v 4 1 -1.5
v 3 1 -2.5
v 4 1 -2.5
f -4/8/6 -3/8/6 -2/8/6
f -2/8/6 -3/8/6 -1/8/6
v 2 2 -1.5
v 3 2 -1.5
v 2 2 -2.5
v 3 2 -2.5
f -4/4/6 -3/4/6 -2/4/6
f -2/4/6 -3/4/6 -1/4/6
v -4 4 2.5
v -3 4 2.5
v 0 4 2.5
v -4 4 1.5
v -3 4 1.5
v 0 4 1.5
v 1 4 -1.5
v 2 4 -1.5
v 1 4 -2.5
v 2 4 -2.5
f -10/8/6 -9/8/6 -7/8/6
f -9/4/6 -8/4/6 -6/4/6
f -7/8/6 -9/8/6 -6/8/6
f -6/4/6 -8/4/6 -5/4/6
f -4/4/6 -3/4/6 -2/4/6
f -2/4/6 -3/4/6 -1/4/6
v 1 9 6.5
v 5 9 6.5
v 1 9 4.5
v 4 9 4.5
v 5 9 4.5
f -5/1/6 -4/1/6 -3/1/6
f -3/1/6 -4/1/6 -2/1/6
f -2/1/6 -4/1/6 -1/1/6
v -2 12 6.5
v 1 12 6.5
v -4 12 4.5
v -2 12 4.5
v 1 12 4.5
v 4 12 4.5
v -1 12 3.5
v 0 12 3.5
v -2 12 2.5
v -1 12 2.5
v 0 12 2.5
v 2 12 2.5
v 2 12 1.5
v 2 12 0.5
v 3 12 0.5
v 2 12 -0.5
v 3 12 -0.5
v 2 12 -1.5
v -2 12 -2.5
v -1 12 -2.5
v 0 12 -2.5
v 2 12 -2.5
v -1 12 -3.5
v 0 12 -3.5
v -5 12 -4.5
v -4 12 -4.5
v -2 12 -4.5
v -1 12 -4.5
v 1 12 -4.5
v 4 12 -4.5
v -5 12 -6.5
v -2 12 -6.5
v -1 12 -6.5
v 1 12 -6.5
f -34/1/6 -33/1/6 -31/1/6
f -31/1/6 -33/1/6 -30/1/6
f -32/7/6 -31/7/6 -28/7/6
f -30/7/6 -29/7/6 -28/7/6
f -31/7/6 -30/7/6 -28/7/6
f -28/7/6 -29/7/6 -27/7/6
f -32/7/6 -28/7/6 -26/7/6
f -26/7/6 -28/7/6 -25/7/6
f -27/7/6 -29/7/6 -24/7/6
f -24/7/6 -29/7/6 -23/7/6
f -23/7/6 -29/7/6 -22/7/6
f -22/7/6 -29/7/6 -21/7/6
f -21/7/6 -29/7/6 -20/7/6
f -20/7/6 -29/7/6 -18/7/6
f -19/7/6 -18/7/6 -17/7/6
f -32/7/6 -26/7/6 -16/7/6
f -17/7/6 -18/7/6 -13/7/6
f -16/7/6 -15/7/6 -12/7/6
f -14/7/6 -13/7/6 -11/7/6
f -16/7/6 -12/7/6 -9/7/6
f -12/7/6 -11/7/6 -9/7/6
f -32/7/6 -16/7/6 -9/7/6
f -9/7/6 -11/7/6 -8/7/6
f -8/7/6 -11/7/6 -7/7/6
f -11/7/6 -13/7/6 -6/7/6
f -7/7/6 -11/7/6 -6/7/6
f -18/7/6 -29/7/6 -5/7/6
f -6/7/6 -13/7/6 -5/7/6
f -13/7/6 -18/7/6 -5/7/6
f -9/1/6 -8/1/6 -4/1/6
f -10/1/6 -9/1/6 -4/1/6
f -8/5/6 -7/5/6 -3/5/6
f -4/1/6 -8/1/6 -3/1/6
f -7/1/6 -6/1/6 -2/1/6
f -3/5/6 -7/5/6 -2/5/6
f -2/1/6 -6/1/6 -1/1/6
v -1 13 3.5
v 0 13 3.5
v -1 13 2.5
v 0 13 2.5
v -1 13 -2.5
v 0 13 -2.5
v -1 13 -3.5
v 0 13 -3.5
f -8/1/6 -7/1/6 -6/1/6
f -6/1/6 -7/1/6 -5/1/6
f -4/1/6 -3/1/6 -2/1/6
f -2/1/6 -3/1/6 -1/1/6
v 2 14 2.5
v 4 14 2.5
v 2 14 0.5
v 2 14 -0.5
v 2 14 -2.5
v 4 14 -2.5
f -6/5/6 -5/5/6 -4/5/6
f -4/5/6 -5/5/6 -3/5/6
f -3/5/6 -5/5/6 -2/5/6
f -2/5/6 -5/5/6 -1/5/6
v -2 15 2.5
v 2 15 2.5
v 1 15 0.5
v 2 15 0.5
v 1 15 -0.5
v 2 15 -0.5
v -2 15 -2.5
v 2 15 -2.5
f -8/5/6 -7/5/6 -6/5/6
f -6/5/6 -7/5/6 -5/5/6
f -8/5/6 -6/5/6 -4/5/6
f -6/2/6 -5/2/6 -4/2/6
f -4/2/6 -5/2/6 -3/2/6
f -8/5/6 -4/5/6 -2/5/6
f -4/5/6 -3/5/6 -2/5/6
f -2/5/6 -3/5/6 -1/5/6
