# MagicaVoxel @ ephtracy

# material
mtllib rock.mtl
usemtl palette

# normals
vn -1 0 0
vn 1 0 0
vn 0 0 1
vn 0 0 -1
vn 0 -1 0
vn 0 1 0

# texcoords
vt 0.974609 0.5

# verts and faces
v -3.5 0 3.5
v -3.5 0 -3.5
v -3.5 3 -1.5
v -3.5 3 -3.5
v -3.5 4 3.5
v -3.5 4 -1.5
f -4/1/1 -5/1/1 -6/1/1
f -3/1/1 -5/1/1 -4/1/1
f -2/1/1 -4/1/1 -6/1/1
f -1/1/1 -4/1/1 -2/1/1
v -2.5 3 -1.5
v -2.5 3 -2.5
v -2.5 4 2.5
v -2.5 4 -1.5
v -2.5 5 -1.5
v -2.5 5 -2.5
v -2.5 6 2.5
v -2.5 6 0.5
v -2.5 8 0.5
v -2.5 8 -1.5
f -7/1/1 -9/1/1 -10/1/1
f -6/1/1 -9/1/1 -7/1/1
f -6/1/1 -7/1/1 -8/1/1
f -5/1/1 -9/1/1 -6/1/1
f -4/1/1 -6/1/1 -8/1/1
f -3/1/1 -6/1/1 -4/1/1
f -2/1/1 -6/1/1 -3/1/1
f -1/1/1 -6/1/1 -2/1/1
v -0.5 0 -2.5
v -0.5 0 -3.5
v -0.5 3 -2.5
v -0.5 3 -3.5
v -0.5 4 2.5
v -0.5 4 1.5
v -0.5 5 1.5
v -0.5 5 0.5
v -0.5 6 2.5
v -0.5 6 0.5
v -0.5 7 0.5
v -0.5 7 -1.5
v -0.5 8 0.5
v -0.5 8 -1.5
f -14/1/2 -13/1/2 -12/1/2
f -12/1/2 -13/1/2 -11/1/2
f -10/1/2 -9/1/2 -8/1/2
f -10/1/2 -8/1/2 -6/1/2
f -8/1/2 -7/1/2 -6/1/2
f -6/1/2 -7/1/2 -5/1/2
f -4/1/2 -3/1/2 -2/1/2
f -2/1/2 -3/1/2 -1/1/2
v 0.5 0 3.5
v 0.5 0 2.5
v 0.5 3 2.5
v 0.5 3 1.5
v 0.5 4 3.5
v 0.5 4 1.5
v 0.5 5 0.5
v 0.5 5 -1.5
v 0.5 7 0.5
v 0.5 7 -1.5
f -10/1/2 -9/1/2 -8/1/2
f -10/1/2 -8/1/2 -6/1/2
f -8/1/2 -7/1/2 -6/1/2
f -6/1/2 -7/1/2 -5/1/2
f -4/1/2 -3/1/2 -2/1/2
f -2/1/2 -3/1/2 -1/1/2
v 1.5 3 1.5
v 1.5 3 0.5
v 1.5 4 0.5
v 1.5 4 -2.5
v 1.5 5 1.5
v 1.5 5 -2.5
f -6/1/2 -5/1/2 -4/1/2
f -6/1/2 -4/1/2 -2/1/2
f -4/1/2 -3/1/2 -2/1/2
f -2/1/2 -3/1/2 -1/1/2
v 2.5 0 2.5
v 2.5 0 0.5
v 2.5 3 2.5
v 2.5 3 0.5
f -4/1/2 -3/1/2 -2/1/2
f -2/1/2 -3/1/2 -1/1/2
v 3.5 0 0.5
v 3.5 0 -2.5
v 3.5 4 0.5
v 3.5 4 -2.5
f -4/1/2 -3/1/2 -2/1/2
f -2/1/2 -3/1/2 -1/1/2
v -3.5 0 3.5
v -3.5 4 3.5
v 0.5 0 3.5
v 0.5 4 3.5
f -2/1/3 -3/1/3 -4/1/3
f -1/1/3 -3/1/3 -2/1/3
v -2.5 4 2.5
v -2.5 6 2.5
v -0.5 4 2.5
v -0.5 6 2.5
v 0.5 0 2.5
v 0.5 3 2.5
v 2.5 0 2.5
v 2.5 3 2.5
f -6/1/3 -7/1/3 -8/1/3
f -5/1/3 -7/1/3 -6/1/3
f -2/1/3 -3/1/3 -4/1/3
f -1/1/3 -3/1/3 -2/1/3
v -0.5 4 1.5
v -0.5 5 1.5
v 0.5 3 1.5
v 0.5 4 1.5
v 1.5 3 1.5
v 1.5 5 1.5
f -3/1/3 -5/1/3 -6/1/3
f -2/1/3 -3/1/3 -4/1/3
f -1/1/3 -5/1/3 -3/1/3
f -1/1/3 -3/1/3 -2/1/3
v -2.5 6 0.5
v -2.5 8 0.5
v -0.5 5 0.5
v -0.5 6 0.5
v -0.5 7 0.5
v -0.5 8 0.5
v 0.5 5 0.5
v 0.5 7 0.5
v 1.5 3 0.5
v 1.5 4 0.5
v 2.5 0 0.5
v 2.5 3 0.5
v 3.5 0 0.5
v 3.5 4 0.5
f -11/1/3 -13/1/3 -14/1/3
f -10/1/3 -13/1/3 -11/1/3
f -9/1/3 -13/1/3 -10/1/3
f -8/1/3 -11/1/3 -12/1/3
f -8/1/3 -10/1/3 -11/1/3
f -7/1/3 -10/1/3 -8/1/3
f -3/1/3 -5/1/3 -6/1/3
f -2/1/3 -3/1/3 -4/1/3
f -1/1/3 -5/1/3 -3/1/3
f -1/1/3 -3/1/3 -2/1/3
v -3.5 3 -1.5
v -3.5 4 -1.5
v -2.5 3 -1.5
v -2.5 4 -1.5
v -2.5 5 -1.5
v -2.5 8 -1.5
v -0.5 7 -1.5
v -0.5 8 -1.5
v 0.5 5 -1.5
v 0.5 7 -1.5
f -10/1/4 -9/1/4 -8/1/4
f -8/1/4 -9/1/4 -7/1/4
f -6/1/4 -5/1/4 -4/1/4
f -4/1/4 -5/1/4 -3/1/4
f -6/1/4 -4/1/4 -2/1/4
f -2/1/4 -4/1/4 -1/1/4
v -2.5 3 -2.5
v -2.5 5 -2.5
v -0.5 0 -2.5
v -0.5 3 -2.5
v 1.5 4 -2.5
v 1.5 5 -2.5
v 3.5 0 -2.5
v 3.5 4 -2.5
f -8/1/4 -7/1/4 -5/1/4
f -5/1/4 -7/1/4 -4/1/4
f -6/1/4 -5/1/4 -4/1/4
f -4/1/4 -7/1/4 -3/1/4
f -6/1/4 -4/1/4 -2/1/4
f -2/1/4 -4/1/4 -1/1/4
v -3.5 0 -3.5
v -3.5 3 -3.5
v -0.5 0 -3.5
v -0.5 3 -3.5
f -4/1/4 -3/1/4 -2/1/4
f -2/1/4 -3/1/4 -1/1/4
v -3.5 0 3.5
v 0.5 0 3.5
v 0.5 0 2.5
v 2.5 0 2.5
v 2.5 0 0.5
v 3.5 0 0.5
v -0.5 0 -2.5
v 3.5 0 -2.5
v -3.5 0 -3.5
v -0.5 0 -3.5
f -8/1/5 -9/1/5 -10/1/5
f -6/1/5 -7/1/5 -8/1/5
f -4/1/5 -8/1/5 -10/1/5
f -4/1/5 -5/1/5 -6/1/5
f -4/1/5 -6/1/5 -8/1/5
f -3/1/5 -5/1/5 -4/1/5
f -2/1/5 -4/1/5 -10/1/5
f -1/1/5 -4/1/5 -2/1/5
v 0.5 3 2.5
v 2.5 3 2.5
v 0.5 3 1.5
v 1.5 3 1.5
v 1.5 3 0.5
v 2.5 3 0.5
v -3.5 3 -1.5
v -2.5 3 -1.5
v -2.5 3 -2.5
v -0.5 3 -2.5
v -3.5 3 -3.5
v -0.5 3 -3.5
f -12/1/6 -11/1/6 -10/1/6
f -10/1/6 -11/1/6 -9/1/6
f -9/1/6 -11/1/6 -8/1/6
f -8/1/6 -11/1/6 -7/1/6
f -6/1/6 -5/1/6 -4/1/6
f -6/1/6 -4/1/6 -2/1/6
f -4/1/6 -3/1/6 -2/1/6
f -2/1/6 -3/1/6 -1/1/6
v -3.5 4 3.5
v 0.5 4 3.5
v -2.5 4 2.5
v -0.5 4 2.5
v -0.5 4 1.5
v 0.5 4 1.5
v 1.5 4 0.5
v 3.5 4 0.5
v -3.5 4 -1.5
v -2.5 4 -1.5
v 1.5 4 -2.5
v 3.5 4 -2.5
f -12/1/6 -11/1/6 -10/1/6
f -10/1/6 -11/1/6 -9/1/6
f -9/1/6 -11/1/6 -8/1/6
f -8/1/6 -11/1/6 -7/1/6
f -12/1/6 -10/1/6 -4/1/6
f -4/1/6 -10/1/6 -3/1/6
f -6/1/6 -5/1/6 -2/1/6
f -2/1/6 -5/1/6 -1/1/6
v -0.5 5 1.5
v 1.5 5 1.5
v -0.5 5 0.5
v 0.5 5 0.5
v -2.5 5 -1.5
v 0.5 5 -1.5
v -2.5 5 -2.5
v 1.5 5 -2.5
f -8/1/6 -7/1/6 -6/1/6
f -6/1/6 -7/1/6 -5/1/6
f -5/1/6 -7/1/6 -3/1/6
f -4/1/6 -3/1/6 -2/1/6
f -3/1/6 -7/1/6 -1/1/6
f -2/1/6 -3/1/6 -1/1/6
v -2.5 6 2.5
v -0.5 6 2.5
v -2.5 6 0.5
v -0.5 6 0.5
f -4/1/6 -3/1/6 -2/1/6
f -2/1/6 -3/1/6 -1/1/6
v -0.5 7 0.5
v 0.5 7 0.5
v -0.5 7 -1.5
v 0.5 7 -1.5
f -4/1/6 -3/1/6 -2/1/6
f -2/1/6 -3/1/6 -1/1/6
v -2.5 8 0.5
v -0.5 8 0.5
v -2.5 8 -1.5
v -0.5 8 -1.5
f -4/1/6 -3/1/6 -2/1/6
f -2/1/6 -3/1/6 -1/1/6
