# MagicaVoxel @ ephtracy

# material
mtllib spike.mtl
usemtl palette

# normals
vn -1 0 0
vn 1 0 0
vn 0 0 1
vn 0 0 -1
vn 0 -1 0
vn 0 1 0

# texcoords
vt 0.962891 0.5
vt 0.974609 0.5

# verts and faces
v -5 0 5
v -5 0 -5
v -5 1 5
v -5 1 -5
f -2/1/1 -3/1/1 -4/1/1
f -1/1/1 -3/1/1 -2/1/1
v -4 1 4
v -4 1 -4
v -4 3 4
v -4 3 -4
f -2/2/1 -3/2/1 -4/2/1
f -1/2/1 -3/2/1 -2/2/1
v -3 3 3
v -3 3 -3
v -3 5 3
v -3 5 -3
f -2/1/1 -3/1/1 -4/1/1
f -1/1/1 -3/1/1 -2/1/1
v -2 5 2
v -2 5 -2
v -2 7 2
v -2 7 -2
f -2/2/1 -3/2/1 -4/2/1
f -1/2/1 -3/2/1 -2/2/1
v -1 7 1
v -1 7 -1
v -1 9 1
v -1 9 -1
f -2/1/1 -3/1/1 -4/1/1
f -1/1/1 -3/1/1 -2/1/1
v 1 7 1
v 1 7 -1
v 1 9 1
v 1 9 -1
f -4/1/2 -3/1/2 -2/1/2
f -2/1/2 -3/1/2 -1/1/2
v 2 5 2
v 2 5 -2
v 2 7 2
v 2 7 -2
f -4/2/2 -3/2/2 -2/2/2
f -2/2/2 -3/2/2 -1/2/2
v 3 3 3
v 3 3 -3
v 3 5 3
v 3 5 -3
f -4/1/2 -3/1/2 -2/1/2
f -2/1/2 -3/1/2 -1/1/2
v 4 1 4
v 4 1 -4
v 4 3 4
v 4 3 -4
f -4/2/2 -3/2/2 -2/2/2
f -2/2/2 -3/2/2 -1/2/2
v 5 0 5
v 5 0 -5
v 5 1 5
v 5 1 -5
f -4/1/2 -3/1/2 -2/1/2
f -2/1/2 -3/1/2 -1/1/2
v -5 0 5
v -5 1 5
v 5 0 5
v 5 1 5
f -2/1/3 -3/1/3 -4/1/3
f -1/1/3 -3/1/3 -2/1/3
v -4 1 4
v -4 3 4
v 4 1 4
v 4 3 4
f -2/2/3 -3/2/3 -4/2/3
f -1/2/3 -3/2/3 -2/2/3
v -3 3 3
v -3 5 3
v 3 3 3
v 3 5 3
f -2/1/3 -3/1/3 -4/1/3
f -1/1/3 -3/1/3 -2/1/3
v -2 5 2
v -2 7 2
v 2 5 2
v 2 7 2
f -2/2/3 -3/2/3 -4/2/3
f -1/2/3 -3/2/3 -2/2/3
v -1 7 1
v -1 9 1
v 1 7 1
v 1 9 1
f -2/1/3 -3/1/3 -4/1/3
f -1/1/3 -3/1/3 -2/1/3
v -1 7 -1
v -1 9 -1
v 1 7 -1
v 1 9 -1
f -4/1/4 -3/1/4 -2/1/4
f -2/1/4 -3/1/4 -1/1/4
v -2 5 -2
v -2 7 -2
v 2 5 -2
v 2 7 -2
f -4/2/4 -3/2/4 -2/2/4
f -2/2/4 -3/2/4 -1/2/4
v -3 3 -3
v -3 5 -3
v 3 3 -3
v 3 5 -3
f -4/1/4 -3/1/4 -2/1/4
f -2/1/4 -3/1/4 -1/1/4
v -4 1 -4
v -4 3 -4
v 4 1 -4
v 4 3 -4
f -4/2/4 -3/2/4 -2/2/4
f -2/2/4 -3/2/4 -1/2/4
v -5 0 -5
v -5 1 -5
v 5 0 -5
v 5 1 -5
f -4/1/4 -3/1/4 -2/1/4
f -2/1/4 -3/1/4 -1/1/4
v -5 0 5
v 5 0 5
v -5 0 -5
v 5 0 -5
f -2/1/5 -3/1/5 -4/1/5
f -1/1/5 -3/1/5 -2/1/5
v -5 1 5
v 5 1 5
v -4 1 4
v 4 1 4
v -4 1 -4
v 4 1 -4
v -5 1 -5
v 5 1 -5
f -8/1/6 -7/1/6 -6/1/6
f -6/1/6 -7/1/6 -5/1/6
f -8/1/6 -6/1/6 -4/1/6
f -5/1/6 -7/1/6 -3/1/6
f -8/1/6 -4/1/6 -2/1/6
f -4/1/6 -3/1/6 -2/1/6
f -3/1/6 -7/1/6 -1/1/6
f -2/1/6 -3/1/6 -1/1/6
v -4 3 4
v 4 3 4
v -3 3 3
v 3 3 3
v -3 3 -3
v 3 3 -3
v -4 3 -4
v 4 3 -4
f -8/2/6 -7/2/6 -6/2/6
f -6/2/6 -7/2/6 -5/2/6
f -8/2/6 -6/2/6 -4/2/6
f -5/2/6 -7/2/6 -3/2/6
f -8/2/6 -4/2/6 -2/2/6
f -4/2/6 -3/2/6 -2/2/6
f -3/2/6 -7/2/6 -1/2/6
f -2/2/6 -3/2/6 -1/2/6
v -3 5 3
v 3 5 3
v -2 5 2
v 2 5 2
v -2 5 -2
v 2 5 -2
v -3 5 -3
v 3 5 -3
f -8/1/6 -7/1/6 -6/1/6
f -6/1/6 -7/1/6 -5/1/6
f -8/1/6 -6/1/6 -4/1/6
f -5/1/6 -7/1/6 -3/1/6
f -8/1/6 -4/1/6 -2/1/6
f -4/1/6 -3/1/6 -2/1/6
f -3/1/6 -7/1/6 -1/1/6
f -2/1/6 -3/1/6 -1/1/6
v -2 7 2
v 2 7 2
v -1 7 1
v 1 7 1
v -1 7 -1
v 1 7 -1
v -2 7 -2
v 2 7 -2
f -8/2/6 -7/2/6 -6/2/6
f -6/2/6 -7/2/6 -5/2/6
f -8/2/6 -6/2/6 -4/2/6
f -5/2/6 -7/2/6 -3/2/6
f -8/2/6 -4/2/6 -2/2/6
f -4/2/6 -3/2/6 -2/2/6
f -3/2/6 -7/2/6 -1/2/6
f -2/2/6 -3/2/6 -1/2/6
v -1 9 1
v 1 9 1
v -1 9 -1
v 1 9 -1
f -4/1/6 -3/1/6 -2/1/6
f -2/1/6 -3/1/6 -1/1/6
