# MagicaVoxel @ ephtracy

# material
mtllib tree.mtl
usemtl palette

# normals
vn -1 0 0
vn 1 0 0
vn 0 0 1
vn 0 0 -1
vn 0 -1 0
vn 0 1 0

# texcoords
vt 0.0644531 0.5
vt 0.580078 0.5
vt 0.748047 0.5

# verts and faces
v -4.5 6 1.5
v -4.5 6 -1.5
v -4.5 7 1.5
v -4.5 7 -1.5
f -2/2/1 -3/2/1 -4/2/1
f -1/2/1 -3/2/1 -2/2/1
v -3.5 5 2.5
v -3.5 5 1.5
v -3.5 5 -2.5
v -3.5 6 3.5
v -3.5 6 2.5
v -3.5 6 1.5
v -3.5 6 -1.5
v -3.5 6 -2.5
v -3.5 6 -3.5
v -3.5 7 3.5
v -3.5 7 2.5
v -3.5 7 1.5
v -3.5 7 -0.5
v -3.5 7 -1.5
v -3.5 7 -2.5
v -3.5 7 -3.5
v -3.5 8 2.5
v -3.5 8 1.5
v -3.5 8 -0.5
v -3.5 8 -2.5
f -16/3/1 -19/3/1 -20/3/1
f -15/2/1 -18/2/1 -19/2/1
f -15/3/1 -19/3/1 -16/3/1
f -14/2/1 -18/2/1 -15/2/1
f -13/2/1 -18/2/1 -14/2/1
f -11/3/1 -16/3/1 -17/3/1
f -11/3/1 -15/3/1 -16/3/1
f -10/3/1 -15/3/1 -11/3/1
f -9/3/1 -15/3/1 -10/3/1
f -7/2/1 -12/2/1 -13/2/1
f -7/2/1 -13/2/1 -14/2/1
f -6/2/1 -12/2/1 -7/2/1
f -5/2/1 -12/2/1 -6/2/1
f -4/2/1 -9/2/1 -10/2/1
f -3/3/1 -8/3/1 -9/3/1
f -3/2/1 -9/2/1 -4/2/1
f -2/2/1 -6/2/1 -7/2/1
f -2/3/1 -8/3/1 -3/3/1
f -2/2/1 -7/2/1 -8/2/1
f -1/2/1 -6/2/1 -2/2/1
v -2.5 4 1.5
v -2.5 4 -1.5
v -2.5 5 3.5
v -2.5 5 2.5
v -2.5 5 1.5
v -2.5 5 -1.5
v -2.5 5 -2.5
v -2.5 5 -3.5
v -2.5 6 3.5
v -2.5 6 2.5
v -2.5 6 -2.5
v -2.5 6 -3.5
v -2.5 7 3.5
v -2.5 7 2.5
v -2.5 7 -2.5
v -2.5 7 -3.5
v -2.5 8 3.5
v -2.5 8 2.5
v -2.5 8 1.5
v -2.5 8 -0.5
v -2.5 8 -1.5
v -2.5 8 -2.5
v -2.5 8 -3.5
v -2.5 9 1.5
v -2.5 9 -1.5
f -21/2/1 -24/2/1 -25/2/1
f -20/2/1 -24/2/1 -21/2/1
f -17/2/1 -22/2/1 -23/2/1
f -16/2/1 -22/2/1 -17/2/1
f -15/2/1 -18/2/1 -19/2/1
f -14/2/1 -18/2/1 -15/2/1
f -9/2/1 -12/2/1 -13/2/1
f -8/2/1 -12/2/1 -9/2/1
f -4/2/1 -10/2/1 -11/2/1
f -3/2/1 -10/2/1 -4/2/1
f -2/2/1 -5/2/1 -6/2/1
f -2/2/1 -6/2/1 -7/2/1
f -1/2/1 -5/2/1 -2/2/1
v -1.5 4 2.5
v -1.5 4 1.5
v -1.5 4 -1.5
v -1.5 4 -2.5
v -1.5 5 2.5
v -1.5 5 1.5
v -1.5 5 -1.5
v -1.5 5 -2.5
v -1.5 6 4.5
v -1.5 6 3.5
v -1.5 6 -3.5
v -1.5 6 -4.5
v -1.5 7 4.5
v -1.5 7 3.5
v -1.5 7 -3.5
v -1.5 7 -4.5
v -1.5 8 2.5
v -1.5 8 1.5
v -1.5 8 -1.5
v -1.5 8 -2.5
v -1.5 9 2.5
v -1.5 9 1.5
v -1.5 9 0.5
v -1.5 9 -0.5
v -1.5 9 -1.5
v -1.5 9 -2.5
v -1.5 10 0.5
v -1.5 10 -0.5
f -24/3/1 -27/3/1 -28/3/1
f -23/3/1 -27/3/1 -24/3/1
f -22/2/1 -25/2/1 -26/2/1
f -21/2/1 -25/2/1 -22/2/1
f -16/2/1 -19/2/1 -20/2/1
f -15/2/1 -19/2/1 -16/2/1
f -14/2/1 -17/2/1 -18/2/1
f -13/2/1 -17/2/1 -14/2/1
f -8/2/1 -11/2/1 -12/2/1
f -7/2/1 -11/2/1 -8/2/1
f -4/2/1 -9/2/1 -10/2/1
f -3/2/1 -9/2/1 -4/2/1
f -2/2/1 -5/2/1 -6/2/1
f -1/2/1 -5/2/1 -2/2/1
v -0.5 0 0.5
v -0.5 0 -0.5
v -0.5 4 0.5
v -0.5 4 -0.5
v -0.5 9 1.5
v -0.5 9 0.5
v -0.5 9 -0.5
v -0.5 9 -1.5
v -0.5 10 1.5
v -0.5 10 0.5
v -0.5 10 -0.5
v -0.5 10 -1.5
f -10/1/1 -11/1/1 -12/1/1
f -9/1/1 -11/1/1 -10/1/1
f -4/2/1 -7/2/1 -8/2/1
f -3/2/1 -7/2/1 -4/2/1
f -2/2/1 -5/2/1 -6/2/1
f -1/2/1 -5/2/1 -2/2/1
v 0.5 0 0.5
v 0.5 0 -0.5
v 0.5 4 0.5
v 0.5 4 -0.5
v 0.5 9 1.5
v 0.5 9 0.5
v 0.5 9 -0.5
v 0.5 9 -1.5
v 0.5 10 1.5
v 0.5 10 0.5
v 0.5 10 -0.5
v 0.5 10 -1.5
f -12/1/2 -11/1/2 -10/1/2
f -10/1/2 -11/1/2 -9/1/2
f -8/2/2 -7/2/2 -4/2/2
f -4/2/2 -7/2/2 -3/2/2
f -6/2/2 -5/2/2 -2/2/2
f -2/2/2 -5/2/2 -1/2/2
v 1.5 4 2.5
v 1.5 4 1.5
v 1.5 4 -1.5
v 1.5 4 -2.5
v 1.5 5 2.5
v 1.5 5 1.5
v 1.5 5 -1.5
v 1.5 5 -2.5
v 1.5 6 4.5
v 1.5 6 3.5
v 1.5 6 -3.5
v 1.5 6 -4.5
v 1.5 7 4.5
v 1.5 7 3.5
v 1.5 7 -3.5
v 1.5 7 -4.5
v 1.5 8 2.5
v 1.5 8 1.5
v 1.5 8 -1.5
v 1.5 8 -2.5
v 1.5 9 2.5
v 1.5 9 1.5
v 1.5 9 0.5
v 1.5 9 -0.5
v 1.5 9 -1.5
v 1.5 9 -2.5
v 1.5 10 0.5
v 1.5 10 -0.5
f -28/2/2 -27/2/2 -24/2/2
f -24/2/2 -27/2/2 -23/2/2
f -26/2/2 -25/2/2 -22/2/2
f -22/2/2 -25/2/2 -21/2/2
f -20/2/2 -19/2/2 -16/2/2
f -16/2/2 -19/2/2 -15/2/2
f -18/2/2 -17/2/2 -14/2/2
f -14/2/2 -17/2/2 -13/2/2
f -12/2/2 -11/2/2 -8/2/2
f -8/2/2 -11/2/2 -7/2/2
f -10/2/2 -9/2/2 -4/2/2
f -4/2/2 -9/2/2 -3/2/2
f -6/2/2 -5/2/2 -2/2/2
f -2/2/2 -5/2/2 -1/2/2
v 2.5 4 1.5
v 2.5 4 -1.5
v 2.5 5 3.5
v 2.5 5 2.5
v 2.5 5 1.5
v 2.5 5 -1.5
v 2.5 5 -2.5
v 2.5 5 -3.5
v 2.5 6 3.5
v 2.5 6 2.5
v 2.5 6 -2.5
v 2.5 6 -3.5
v 2.5 7 3.5
v 2.5 7 2.5
v 2.5 7 -2.5
v 2.5 7 -3.5
v 2.5 8 3.5
v 2.5 8 2.5
v 2.5 8 1.5
v 2.5 8 0.5
v 2.5 8 -1.5
v 2.5 8 -2.5
v 2.5 8 -3.5
v 2.5 9 1.5
v 2.5 9 0.5
v 2.5 9 -1.5
f -26/2/2 -25/2/2 -22/2/2
f -22/2/2 -25/2/2 -21/2/2
f -24/2/2 -23/2/2 -18/2/2
f -18/2/2 -23/2/2 -17/2/2
f -20/2/2 -19/2/2 -16/2/2
f -16/2/2 -19/2/2 -15/2/2
f -14/2/2 -13/2/2 -10/2/2
f -10/2/2 -13/2/2 -9/2/2
f -12/2/2 -11/2/2 -5/2/2
f -5/2/2 -11/2/2 -4/2/2
f -8/2/2 -7/2/2 -3/2/2
f -7/3/2 -6/3/2 -2/3/2
f -3/2/2 -7/2/2 -2/2/2
f -2/3/2 -6/3/2 -1/3/2
v 3.5 5 2.5
v 3.5 5 -2.5
v 3.5 6 3.5
v 3.5 6 2.5
v 3.5 6 1.5
v 3.5 6 -0.5
v 3.5 6 -1.5
v 3.5 6 -2.5
v 3.5 6 -3.5
v 3.5 7 3.5
v 3.5 7 2.5
v 3.5 7 1.5
v 3.5 7 -0.5
v 3.5 7 -1.5
v 3.5 7 -2.5
v 3.5 7 -3.5
v 3.5 8 2.5
v 3.5 8 -2.5
f -18/2/2 -17/2/2 -15/2/2
f -15/2/2 -17/2/2 -14/2/2
f -14/2/2 -17/2/2 -13/2/2
f -13/2/2 -17/2/2 -12/2/2
f -12/2/2 -17/2/2 -11/2/2
f -16/3/2 -15/3/2 -9/3/2
f -15/2/2 -14/2/2 -8/2/2
f -9/3/2 -15/3/2 -8/3/2
f -8/2/2 -14/2/2 -7/2/2
f -11/2/2 -10/2/2 -5/2/2
f -12/2/2 -11/2/2 -5/2/2
f -5/2/2 -10/2/2 -4/2/2
f -4/2/2 -10/2/2 -3/2/2
f -7/2/2 -6/2/2 -2/2/2
f -8/2/2 -7/2/2 -2/2/2
f -5/2/2 -4/2/2 -2/2/2
f -6/2/2 -5/2/2 -2/2/2
f -2/2/2 -4/2/2 -1/2/2
v 4.5 6 1.5
v 4.5 6 -0.5
v 4.5 6 -1.5
v 4.5 7 1.5
v 4.5 7 -0.5
v 4.5 7 -1.5
f -6/3/2 -5/3/2 -3/3/2
f -5/2/2 -4/2/2 -2/2/2
f -3/3/2 -5/3/2 -2/3/2
f -2/2/2 -4/2/2 -1/2/2
v -1.5 6 4.5
v -1.5 7 4.5
v 1.5 6 4.5
v 1.5 7 4.5
f -2/2/3 -3/2/3 -4/2/3
f -1/2/3 -3/2/3 -2/2/3
v -3.5 6 3.5
v -3.5 7 3.5
v -2.5 5 3.5
v -2.5 6 3.5
v -2.5 7 3.5
v -2.5 8 3.5
v -1.5 6 3.5
v -1.5 7 3.5
v -0.5 7 3.5
v -0.5 8 3.5
v 1.5 6 3.5
v 1.5 7 3.5
v 1.5 8 3.5
v 2.5 5 3.5
v 2.5 6 3.5
v 2.5 7 3.5
v 2.5 8 3.5
v 3.5 6 3.5
v 3.5 7 3.5
f -16/3/3 -18/3/3 -19/3/3
f -15/3/3 -18/3/3 -16/3/3
f -13/2/3 -16/2/3 -17/2/3
f -13/2/3 -14/2/3 -15/2/3
f -13/2/3 -15/2/3 -16/2/3
f -12/2/3 -14/2/3 -13/2/3
f -11/2/3 -14/2/3 -12/2/3
f -10/2/3 -14/2/3 -11/2/3
f -9/2/3 -13/2/3 -17/2/3
f -8/3/3 -10/3/3 -11/3/3
f -7/3/3 -10/3/3 -8/3/3
f -6/2/3 -9/2/3 -17/2/3
f -6/2/3 -8/2/3 -9/2/3
f -6/2/3 -7/2/3 -8/2/3
f -5/2/3 -7/2/3 -6/2/3
f -4/2/3 -7/2/3 -5/2/3
f -3/2/3 -7/2/3 -4/2/3
f -2/3/3 -4/3/3 -5/3/3
f -1/3/3 -4/3/3 -2/3/3
v -3.5 5 2.5
v -3.5 6 2.5
v -3.5 7 2.5
v -3.5 8 2.5
v -2.5 5 2.5
v -2.5 6 2.5
v -2.5 7 2.5
v -2.5 8 2.5
v -1.5 4 2.5
v -1.5 5 2.5
v -1.5 8 2.5
v -1.5 9 2.5
v -0.5 8 2.5
v 0.5 4 2.5
v 0.5 5 2.5
v 1.5 4 2.5
v 1.5 5 2.5
v 1.5 8 2.5
v 1.5 9 2.5
v 2.5 5 2.5
v 2.5 6 2.5
v 2.5 7 2.5
v 2.5 8 2.5
v 3.5 5 2.5
v 3.5 6 2.5
v 3.5 7 2.5
v 3.5 8 2.5
f -23/3/3 -26/3/3 -27/3/3
f -22/3/3 -26/3/3 -23/3/3
f -21/2/3 -24/2/3 -25/2/3
f -20/2/3 -24/2/3 -21/2/3
f -15/2/3 -16/2/3 -17/2/3
f -14/3/3 -18/3/3 -19/3/3
f -13/3/3 -18/3/3 -14/3/3
f -12/2/3 -13/2/3 -14/2/3
f -11/2/3 -13/2/3 -12/2/3
f -10/2/3 -16/2/3 -15/2/3
f -9/2/3 -16/2/3 -10/2/3
f -4/2/3 -7/2/3 -8/2/3
f -3/2/3 -7/2/3 -4/2/3
f -2/2/3 -5/2/3 -6/2/3
f -1/2/3 -5/2/3 -2/2/3
v -4.5 6 1.5
v -4.5 7 1.5
v -3.5 6 1.5
v -3.5 7 1.5
v -2.5 4 1.5
v -2.5 5 1.5
v -2.5 8 1.5
v -2.5 9 1.5
v -1.5 4 1.5
v -1.5 5 1.5
v -1.5 8 1.5
v -1.5 9 1.5
v -0.5 9 1.5
v -0.5 10 1.5
v 0.5 9 1.5
v 0.5 10 1.5
v 1.5 4 1.5
v 1.5 5 1.5
v 1.5 8 1.5
v 1.5 9 1.5
v 2.5 4 1.5
v 2.5 5 1.5
v 2.5 8 1.5
v 2.5 9 1.5
v 3.5 6 1.5
v 3.5 7 1.5
v 4.5 6 1.5
v 4.5 7 1.5
f -26/2/3 -27/2/3 -28/2/3
f -25/2/3 -27/2/3 -26/2/3
f -20/2/3 -23/2/3 -24/2/3
f -19/2/3 -23/2/3 -20/2/3
f -18/2/3 -21/2/3 -22/2/3
f -17/2/3 -21/2/3 -18/2/3
f -14/2/3 -15/2/3 -16/2/3
f -13/2/3 -15/2/3 -14/2/3
f -8/2/3 -11/2/3 -12/2/3
f -7/2/3 -11/2/3 -8/2/3
f -6/2/3 -9/2/3 -10/2/3
f -5/2/3 -9/2/3 -6/2/3
f -2/3/3 -3/3/3 -4/3/3
f -1/3/3 -3/3/3 -2/3/3
v -1.5 9 0.5
v -1.5 10 0.5
v -0.5 0 0.5
v -0.5 4 0.5
v -0.5 9 0.5
v -0.5 10 0.5
v 0.5 0 0.5
v 0.5 4 0.5
v 0.5 9 0.5
v 0.5 10 0.5
v 1.5 9 0.5
v 1.5 10 0.5
f -8/2/3 -11/2/3 -12/2/3
f -7/2/3 -11/2/3 -8/2/3
f -6/1/3 -9/1/3 -10/1/3
f -5/1/3 -9/1/3 -6/1/3
f -2/2/3 -3/2/3 -4/2/3
f -1/2/3 -3/2/3 -2/2/3
v -1.5 9 -0.5
v -1.5 10 -0.5
v -0.5 0 -0.5
v -0.5 4 -0.5
v -0.5 9 -0.5
v -0.5 10 -0.5
v 0.5 0 -0.5
v 0.5 4 -0.5
v 0.5 9 -0.5
v 0.5 10 -0.5
v 1.5 9 -0.5
v 1.5 10 -0.5
f -12/2/4 -11/2/4 -8/2/4
f -8/2/4 -11/2/4 -7/2/4
f -10/1/4 -9/1/4 -6/1/4
f -6/1/4 -9/1/4 -5/1/4
f -4/2/4 -3/2/4 -2/2/4
f -2/2/4 -3/2/4 -1/2/4
v -4.5 6 -1.5
v -4.5 7 -1.5
v -3.5 6 -1.5
v -3.5 7 -1.5
v -2.5 4 -1.5
v -2.5 5 -1.5
v -2.5 8 -1.5
v -2.5 9 -1.5
v -1.5 4 -1.5
v -1.5 5 -1.5
v -1.5 8 -1.5
v -1.5 9 -1.5
v -0.5 9 -1.5
v -0.5 10 -1.5
v 0.5 9 -1.5
v 0.5 10 -1.5
v 1.5 4 -1.5
v 1.5 5 -1.5
v 1.5 8 -1.5
v 1.5 9 -1.5
v 2.5 4 -1.5
v 2.5 5 -1.5
v 2.5 8 -1.5
v 2.5 9 -1.5
v 3.5 6 -1.5
v 3.5 7 -1.5
v 4.5 6 -1.5
v 4.5 7 -1.5
f -28/2/4 -27/2/4 -26/2/4
f -26/2/4 -27/2/4 -25/2/4
f -24/2/4 -23/2/4 -20/2/4
f -20/2/4 -23/2/4 -19/2/4
f -22/2/4 -21/2/4 -18/2/4
f -18/2/4 -21/2/4 -17/2/4
f -16/2/4 -15/2/4 -14/2/4
f -14/2/4 -15/2/4 -13/2/4
f -12/2/4 -11/2/4 -8/2/4
f -8/2/4 -11/2/4 -7/2/4
f -10/3/4 -9/3/4 -6/3/4
f -6/3/4 -9/3/4 -5/3/4
f -4/2/4 -3/2/4 -2/2/4
f -2/2/4 -3/2/4 -1/2/4
v -3.5 5 -2.5
v -3.5 6 -2.5
v -3.5 7 -2.5
v -3.5 8 -2.5
v -2.5 5 -2.5
v -2.5 6 -2.5
v -2.5 7 -2.5
v -2.5 8 -2.5
v -1.5 4 -2.5
v -1.5 5 -2.5
v -1.5 8 -2.5
v -1.5 9 -2.5
v -0.5 8 -2.5
v 1.5 4 -2.5
v 1.5 5 -2.5
v 1.5 8 -2.5
v 1.5 9 -2.5
v 2.5 5 -2.5
v 2.5 6 -2.5
v 2.5 7 -2.5
v 2.5 8 -2.5
v 3.5 5 -2.5
v 3.5 6 -2.5
v 3.5 7 -2.5
v 3.5 8 -2.5
f -25/2/4 -24/2/4 -21/2/4
f -21/2/4 -24/2/4 -20/2/4
f -23/2/4 -22/2/4 -19/2/4
f -19/2/4 -22/2/4 -18/2/4
f -15/2/4 -14/2/4 -13/2/4
f -17/2/4 -16/2/4 -12/2/4
f -12/2/4 -16/2/4 -11/2/4
f -13/2/4 -14/2/4 -10/2/4
f -10/2/4 -14/2/4 -9/2/4
f -8/2/4 -7/2/4 -4/2/4
f -4/2/4 -7/2/4 -3/2/4
f -6/2/4 -5/2/4 -2/2/4
f -2/2/4 -5/2/4 -1/2/4
v -3.5 6 -3.5
v -3.5 7 -3.5
v -2.5 5 -3.5
v -2.5 6 -3.5
v -2.5 7 -3.5
v -2.5 8 -3.5
v -1.5 6 -3.5
v -1.5 7 -3.5
v -0.5 7 -3.5
v -0.5 8 -3.5
v 1.5 6 -3.5
v 1.5 7 -3.5
v 1.5 8 -3.5
v 2.5 5 -3.5
v 2.5 6 -3.5
v 2.5 7 -3.5
v 2.5 8 -3.5
v 3.5 6 -3.5
v 3.5 7 -3.5
f -19/2/4 -18/2/4 -16/2/4
f -16/2/4 -18/2/4 -15/2/4
f -17/2/4 -16/2/4 -13/2/4
f -15/2/4 -14/2/4 -13/2/4
f -16/2/4 -15/2/4 -13/2/4
f -13/2/4 -14/2/4 -12/2/4
f -12/2/4 -14/2/4 -11/2/4
f -11/2/4 -14/2/4 -10/2/4
f -17/2/4 -13/2/4 -9/2/4
f -11/3/4 -10/3/4 -8/3/4
f -8/3/4 -10/3/4 -7/3/4
f -17/2/4 -9/2/4 -6/2/4
f -9/2/4 -8/2/4 -6/2/4
f -8/2/4 -7/2/4 -6/2/4
f -6/2/4 -7/2/4 -5/2/4
f -5/2/4 -7/2/4 -4/2/4
f -4/2/4 -7/2/4 -3/2/4
f -5/2/4 -4/2/4 -2/2/4
f -2/2/4 -4/2/4 -1/2/4
v -1.5 6 -4.5
v -1.5 7 -4.5
v 1.5 6 -4.5
v 1.5 7 -4.5
f -4/2/4 -3/2/4 -2/2/4
f -2/2/4 -3/2/4 -1/2/4
v -0.5 0 0.5
v 0.5 0 0.5
v -0.5 0 -0.5
v 0.5 0 -0.5
f -2/1/5 -3/1/5 -4/1/5
f -1/1/5 -3/1/5 -2/1/5
v -1.5 4 2.5
v 0.5 4 2.5
v 1.5 4 2.5
v -2.5 4 1.5
v -1.5 4 1.5
v 0.5 4 1.5
v 1.5 4 1.5
v 2.5 4 1.5
v -0.5 4 0.5
v 0.5 4 0.5
v -0.5 4 -0.5
v 0.5 4 -0.5
v -2.5 4 -1.5
v -1.5 4 -1.5
v 1.5 4 -1.5
v 2.5 4 -1.5
v -1.5 4 -2.5
v 1.5 4 -2.5
f -14/3/5 -17/3/5 -18/3/5
f -13/2/5 -16/2/5 -17/2/5
f -13/3/5 -17/3/5 -14/3/5
f -12/2/5 -16/2/5 -13/2/5
f -10/2/5 -14/2/5 -15/2/5
f -10/2/5 -11/2/5 -12/2/5
f -10/2/5 -12/2/5 -13/2/5
f -10/2/5 -13/2/5 -14/2/5
f -9/2/5 -11/2/5 -10/2/5
f -8/2/5 -10/2/5 -15/2/5
f -7/2/5 -11/2/5 -9/2/5
f -6/2/5 -8/2/5 -15/2/5
f -6/2/5 -7/2/5 -8/2/5
f -5/2/5 -7/2/5 -6/2/5
f -4/2/5 -11/2/5 -7/2/5
f -4/2/5 -7/2/5 -5/2/5
f -3/2/5 -11/2/5 -4/2/5
f -2/2/5 -4/2/5 -5/2/5
f -1/2/5 -4/2/5 -2/2/5
v -2.5 5 3.5
v 2.5 5 3.5
v -3.5 5 2.5
v -2.5 5 2.5
v -1.5 5 2.5
v 0.5 5 2.5
v 1.5 5 2.5
v 2.5 5 2.5
v 3.5 5 2.5
v -3.5 5 1.5
v -2.5 5 1.5
v -1.5 5 1.5
v 1.5 5 1.5
v 2.5 5 1.5
v -2.5 5 -1.5
v -1.5 5 -1.5
v 1.5 5 -1.5
v 2.5 5 -1.5
v -3.5 5 -2.5
v -2.5 5 -2.5
v -1.5 5 -2.5
v 1.5 5 -2.5
v 2.5 5 -2.5
v 3.5 5 -2.5
v -2.5 5 -3.5
v 2.5 5 -3.5
f -23/2/5 -25/2/5 -26/2/5
f -22/2/5 -25/2/5 -23/2/5
f -21/2/5 -25/2/5 -22/2/5
f -20/2/5 -25/2/5 -21/2/5
f -19/2/5 -25/2/5 -20/2/5
f -17/3/5 -23/3/5 -24/3/5
f -16/2/5 -22/2/5 -23/2/5
f -16/3/5 -23/3/5 -17/3/5
f -15/2/5 -22/2/5 -16/2/5
f -14/2/5 -18/2/5 -19/2/5
f -14/2/5 -19/2/5 -20/2/5
f -13/2/5 -18/2/5 -14/2/5
f -12/2/5 -16/2/5 -17/2/5
f -9/2/5 -18/2/5 -13/2/5
f -8/2/5 -11/2/5 -12/2/5
f -8/2/5 -12/2/5 -17/2/5
f -7/2/5 -11/2/5 -8/2/5
f -6/2/5 -11/2/5 -7/2/5
f -5/2/5 -9/2/5 -10/2/5
f -4/2/5 -18/2/5 -9/2/5
f -4/2/5 -9/2/5 -5/2/5
f -3/2/5 -18/2/5 -4/2/5
f -2/2/5 -6/2/5 -7/2/5
f -2/2/5 -5/2/5 -6/2/5
f -2/2/5 -4/2/5 -5/2/5
f -1/2/5 -4/2/5 -2/2/5
v -1.5 6 4.5
v 1.5 6 4.5
v -3.5 6 3.5
v -2.5 6 3.5
v -1.5 6 3.5
v 1.5 6 3.5
v 2.5 6 3.5
v 3.5 6 3.5
v -3.5 6 2.5
v -2.5 6 2.5
v 2.5 6 2.5
v 3.5 6 2.5
v -4.5 6 1.5
v -3.5 6 1.5
v 3.5 6 1.5
v 4.5 6 1.5
v 3.5 6 -0.5
v 4.5 6 -0.5
v -4.5 6 -1.5
v -3.5 6 -1.5
v 3.5 6 -1.5
v 4.5 6 -1.5
v -3.5 6 -2.5
v -2.5 6 -2.5
v 2.5 6 -2.5
v 3.5 6 -2.5
v -3.5 6 -3.5
v -2.5 6 -3.5
v -1.5 6 -3.5
v 1.5 6 -3.5
v 2.5 6 -3.5
v 3.5 6 -3.5
v -1.5 6 -4.5
v 1.5 6 -4.5
f -30/2/5 -33/2/5 -34/2/5
f -29/2/5 -33/2/5 -30/2/5
f -26/3/5 -31/3/5 -32/3/5
f -25/3/5 -31/3/5 -26/3/5
f -24/3/5 -27/3/5 -28/3/5
f -23/3/5 -27/3/5 -24/3/5
f -18/3/5 -19/3/5 -20/3/5
f -17/3/5 -19/3/5 -18/3/5
f -16/2/5 -21/2/5 -22/2/5
f -15/2/5 -21/2/5 -16/2/5
f -14/2/5 -17/2/5 -18/2/5
f -13/2/5 -17/2/5 -14/2/5
f -8/2/5 -11/2/5 -12/2/5
f -7/2/5 -11/2/5 -8/2/5
f -4/2/5 -9/2/5 -10/2/5
f -3/2/5 -9/2/5 -4/2/5
f -2/2/5 -5/2/5 -6/2/5
f -1/2/5 -5/2/5 -2/2/5
v -1.5 7 4.5
v 1.5 7 4.5
v -3.5 7 3.5
v -2.5 7 3.5
v -1.5 7 3.5
v -0.5 7 3.5
v 1.5 7 3.5
v 2.5 7 3.5
v 3.5 7 3.5
v -3.5 7 2.5
v -2.5 7 2.5
v 2.5 7 2.5
v 3.5 7 2.5
v -4.5 7 1.5
v -3.5 7 1.5
v 3.5 7 1.5
v 4.5 7 1.5
v -3.5 7 -0.5
v 3.5 7 -0.5
v 4.5 7 -0.5
v -4.5 7 -1.5
v -3.5 7 -1.5
v 3.5 7 -1.5
v 4.5 7 -1.5
v -3.5 7 -2.5
v -2.5 7 -2.5
v 2.5 7 -2.5
v 3.5 7 -2.5
v -3.5 7 -3.5
v -2.5 7 -3.5
v -1.5 7 -3.5
v -0.5 7 -3.5
v 1.5 7 -3.5
v 2.5 7 -3.5
v 3.5 7 -3.5
v -1.5 7 -4.5
v 1.5 7 -4.5
f -37/2/6 -36/2/6 -33/2/6
f -33/2/6 -36/2/6 -32/2/6
f -32/2/6 -36/2/6 -31/2/6
f -35/3/6 -34/3/6 -28/3/6
f -28/3/6 -34/3/6 -27/3/6
f -30/3/6 -29/3/6 -26/3/6
f -26/3/6 -29/3/6 -25/3/6
f -24/2/6 -23/2/6 -20/2/6
f -22/3/6 -21/3/6 -19/3/6
f -19/3/6 -21/3/6 -18/3/6
f -24/2/6 -20/2/6 -17/2/6
f -17/2/6 -20/2/6 -16/2/6
f -19/2/6 -18/2/6 -15/2/6
f -15/2/6 -18/2/6 -14/2/6
f -13/2/6 -12/2/6 -9/2/6
f -9/2/6 -12/2/6 -8/2/6
f -11/2/6 -10/2/6 -4/2/6
f -4/2/6 -10/2/6 -3/2/6
f -6/2/6 -5/2/6 -2/2/6
f -7/2/6 -6/2/6 -2/2/6
f -2/2/6 -5/2/6 -1/2/6
v -2.5 8 3.5
v -0.5 8 3.5
v 1.5 8 3.5
v 2.5 8 3.5
v -3.5 8 2.5
v -2.5 8 2.5
v -1.5 8 2.5
v -0.5 8 2.5
v 1.5 8 2.5
v 2.5 8 2.5
v 3.5 8 2.5
v -3.5 8 1.5
v -2.5 8 1.5
v -1.5 8 1.5
v 1.5 8 1.5
v 2.5 8 1.5
v 2.5 8 0.5
v -3.5 8 -0.5
v -2.5 8 -0.5
v -2.5 8 -1.5
v -1.5 8 -1.5
v 1.5 8 -1.5
v 2.5 8 -1.5
v -3.5 8 -2.5
v -2.5 8 -2.5
v -1.5 8 -2.5
v -0.5 8 -2.5
v 1.5 8 -2.5
v 2.5 8 -2.5
v 3.5 8 -2.5
v -2.5 8 -3.5
v -0.5 8 -3.5
v 1.5 8 -3.5
v 2.5 8 -3.5
f -34/2/6 -33/2/6 -29/2/6
f -29/2/6 -33/2/6 -28/2/6
f -33/3/6 -32/3/6 -27/3/6
f -28/2/6 -33/2/6 -27/2/6
f -32/2/6 -31/2/6 -26/2/6
f -27/3/6 -32/3/6 -26/3/6
f -26/2/6 -31/2/6 -25/2/6
f -29/2/6 -28/2/6 -23/2/6
f -30/2/6 -29/2/6 -23/2/6
f -23/2/6 -28/2/6 -22/2/6
f -22/2/6 -28/2/6 -21/2/6
f -25/2/6 -24/2/6 -20/2/6
f -26/2/6 -25/2/6 -20/2/6
f -20/2/6 -24/2/6 -19/2/6
f -19/2/6 -24/2/6 -18/2/6
f -23/3/6 -22/3/6 -17/3/6
f -17/3/6 -22/3/6 -16/3/6
f -17/2/6 -16/2/6 -15/2/6
f -18/2/6 -24/2/6 -12/2/6
f -15/2/6 -14/2/6 -11/2/6
f -17/2/6 -15/2/6 -11/2/6
f -11/2/6 -14/2/6 -10/2/6
f -10/2/6 -14/2/6 -9/2/6
f -13/2/6 -12/2/6 -7/2/6
f -12/2/6 -24/2/6 -6/2/6
f -7/2/6 -12/2/6 -6/2/6
f -6/2/6 -24/2/6 -5/2/6
f -9/2/6 -8/2/6 -4/2/6
f -10/2/6 -9/2/6 -4/2/6
f -8/3/6 -7/3/6 -3/3/6
f -4/2/6 -8/2/6 -3/2/6
f -7/2/6 -6/2/6 -2/2/6
f -3/3/6 -7/3/6 -2/3/6
f -2/2/6 -6/2/6 -1/2/6
v -1.5 9 2.5
v 1.5 9 2.5
v -2.5 9 1.5
v -1.5 9 1.5
v -0.5 9 1.5
v 0.5 9 1.5
v 1.5 9 1.5
v 2.5 9 1.5
v -1.5 9 0.5
v -0.5 9 0.5
v 0.5 9 0.5
v 1.5 9 0.5
v 2.5 9 0.5
v -1.5 9 -0.5
v -0.5 9 -0.5
v 0.5 9 -0.5
v 1.5 9 -0.5
v -2.5 9 -1.5
v -1.5 9 -1.5
v -0.5 9 -1.5
v 0.5 9 -1.5
v 1.5 9 -1.5
v 2.5 9 -1.5
v -1.5 9 -2.5
v 1.5 9 -2.5
f -25/2/6 -24/2/6 -22/2/6
f -22/2/6 -24/2/6 -21/2/6
f -21/2/6 -24/2/6 -20/2/6
f -20/2/6 -24/2/6 -19/2/6
f -23/2/6 -22/2/6 -17/2/6
f -22/2/6 -21/2/6 -17/2/6
f -17/2/6 -21/2/6 -16/2/6
f -19/2/6 -18/2/6 -15/2/6
f -20/2/6 -19/2/6 -15/2/6
f -15/2/6 -18/2/6 -14/2/6
f -14/2/6 -18/2/6 -13/2/6
f -23/2/6 -17/2/6 -12/2/6
f -14/3/6 -13/3/6 -9/3/6
f -12/2/6 -11/2/6 -8/2/6
f -23/2/6 -12/2/6 -8/2/6
f -8/2/6 -11/2/6 -7/2/6
f -7/2/6 -11/2/6 -6/2/6
f -10/3/6 -9/3/6 -5/3/6
f -9/3/6 -13/3/6 -4/3/6
f -5/3/6 -9/3/6 -4/3/6
f -4/3/6 -13/3/6 -3/3/6
f -7/2/6 -6/2/6 -2/2/6
f -6/2/6 -5/2/6 -2/2/6
f -5/2/6 -4/2/6 -2/2/6
f -2/2/6 -4/2/6 -1/2/6
v -0.5 10 1.5
v 0.5 10 1.5
v -1.5 10 0.5
v -0.5 10 0.5
v 0.5 10 0.5
v 1.5 10 0.5
v -1.5 10 -0.5
v -0.5 10 -0.5
v 0.5 10 -0.5
v 1.5 10 -0.5
v -0.5 10 -1.5
v 0.5 10 -1.5
f -12/2/6 -11/2/6 -9/2/6
f -9/2/6 -11/2/6 -8/2/6
f -10/2/6 -9/2/6 -6/2/6
f -8/2/6 -7/2/6 -6/2/6
f -9/2/6 -8/2/6 -6/2/6
f -6/2/6 -7/2/6 -5/2/6
f -5/2/6 -7/2/6 -4/2/6
f -4/2/6 -7/2/6 -3/2/6
f -5/2/6 -4/2/6 -2/2/6
f -2/2/6 -4/2/6 -1/2/6
