# WaveFront *.obj file (generated by CINEMA 4D)

mtllib ./AlbatrossFloater.mtl

v 0.00000000000000 -1.00000000000000 0.00000000000000
v 0.00000000000000 1.00000000000000 0.00000000000000
v 0.70710676908493 -0.70710676908493 0.00000000000000
v 0.50000000000000 -0.70710676908493 0.50000000000000
v 0.00000000000000 -0.70710676908493 0.70710676908493
v -0.50000000000000 -0.70710676908493 0.50000000000000
v -0.70710676908493 -0.70710676908493 0.00000000000000
v -0.50000000000000 -0.70710676908493 -0.50000000000000
v -0.00000000000000 -0.70710676908493 -0.70710676908493
v 0.50000000000000 -0.70710676908493 -0.50000000000000
v 1.00000000000000 0.00000000000000 0.00000000000000
v 0.70710676908493 0.00000000000000 0.70710676908493
v 0.00000000000000 0.00000000000000 1.00000000000000
v -0.70710676908493 0.00000000000000 0.70710676908493
v -1.00000000000000 0.00000000000000 0.00000000000000
v -0.70710676908493 0.00000000000000 -0.70710676908493
v -0.00000000000000 0.00000000000000 -1.00000000000000
v 0.70710676908493 0.00000000000000 -0.70710676908493
v 0.70710676908493 0.70710676908493 0.00000000000000
v 0.50000000000000 0.70710676908493 0.50000000000000
v 0.00000000000000 0.70710676908493 0.70710676908493
v -0.50000000000000 0.70710676908493 0.50000000000000
v -0.70710676908493 0.70710676908493 0.00000000000000
v -0.50000000000000 0.70710676908493 -0.50000000000000
v -0.00000000000000 0.70710676908493 -0.70710676908493
v 0.50000000000000 0.70710676908493 -0.50000000000000
# 26 vertices

vn 0.86285620927811 -0.35740676522255 0.35740676522255
vn 0.35740676522255 -0.35740676522255 0.86285620927811
vn -0.35740676522255 -0.35740676522255 0.86285620927811
vn -0.86285620927811 -0.35740676522255 0.35740676522255
vn -0.86285620927811 -0.35740676522255 -0.35740676522255
vn -0.35740676522255 -0.35740676522255 -0.86285620927811
vn 0.35740676522255 -0.35740676522255 -0.86285620927811
vn 0.86285620927811 -0.35740676522255 -0.35740676522255
vn 0.86285620927811 0.35740676522255 0.35740676522255
vn 0.35740676522255 0.35740676522255 0.86285620927811
vn -0.35740676522255 0.35740676522255 0.86285620927811
vn -0.86285620927811 0.35740676522255 0.35740676522255
vn -0.86285620927811 0.35740676522255 -0.35740676522255
vn -0.35740676522255 0.35740676522255 -0.86285620927811
vn 0.35740676522255 0.35740676522255 -0.86285620927811
vn 0.86285620927811 0.35740676522255 -0.35740676522255
vn 0.37796446681023 -0.91248697042465 0.15655803680420
vn 0.00000000000000 0.00000000000000 0.00000000000000
vn 0.37796446681023 0.91248697042465 0.15655802190304
vn 0.15655803680420 -0.91248697042465 0.37796446681023
vn 0.15655802190304 0.91248697042465 0.37796446681023
vn -0.15655803680420 -0.91248697042465 0.37796446681023
vn -0.15655802190304 0.91248697042465 0.37796446681023
vn -0.37796446681023 -0.91248697042465 0.15655803680420
vn -0.37796446681023 0.91248697042465 0.15655802190304
vn -0.37796446681023 -0.91248697042465 -0.15655803680420
vn -0.37796446681023 0.91248697042465 -0.15655802190304
vn -0.15655803680420 -0.91248697042465 -0.37796446681023
vn -0.15655802190304 0.91248697042465 -0.37796446681023
vn 0.15655803680420 -0.91248697042465 -0.37796446681023
vn 0.15655802190304 0.91248697042465 -0.37796446681023
vn 0.37796446681023 -0.91248697042465 -0.15655803680420
vn 0.37796446681023 0.91248697042465 -0.15655802190304
# 33 normals

vt 0.00000000000000 0.25000000000000 0.00000000000000
vt 0.00000000000000 0.50000000000000 0.00000000000000
vt 0.12500000000000 0.50000000000000 0.00000000000000
vt 0.12500000000000 0.25000000000000 0.00000000000000
vt 0.25000000000000 0.50000000000000 0.00000000000000
vt 0.25000000000000 0.25000000000000 0.00000000000000
vt 0.37500000000000 0.50000000000000 0.00000000000000
vt 0.37500000000000 0.25000000000000 0.00000000000000
vt 0.50000000000000 0.50000000000000 0.00000000000000
vt 0.50000000000000 0.25000000000000 0.00000000000000
vt 0.62500000000000 0.50000000000000 0.00000000000000
vt 0.62500000000000 0.25000000000000 0.00000000000000
vt 0.75000000000000 0.50000000000000 0.00000000000000
vt 0.75000000000000 0.25000000000000 0.00000000000000
vt 0.87500000000000 0.50000000000000 0.00000000000000
vt 0.87500000000000 0.25000000000000 0.00000000000000
vt 1.00000000000000 0.50000000000000 0.00000000000000
vt 1.00000000000000 0.25000000000000 0.00000000000000
vt 0.00000000000000 0.75000000000000 0.00000000000000
vt 0.12500000000000 0.75000000000000 0.00000000000000
vt 0.25000000000000 0.75000000000000 0.00000000000000
vt 0.37500000000000 0.75000000000000 0.00000000000000
vt 0.50000000000000 0.75000000000000 0.00000000000000
vt 0.62500000000000 0.75000000000000 0.00000000000000
vt 0.75000000000000 0.75000000000000 0.00000000000000
vt 0.87500000000000 0.75000000000000 0.00000000000000
vt 1.00000000000000 0.75000000000000 0.00000000000000
vt 0.00000000000000 0.00000000000000 0.00000000000000
vt 0.00000000000000 1.00000000000000 0.00000000000000
vt 0.12500000000000 0.00000000000000 0.00000000000000
vt 0.12500000000000 1.00000000000000 0.00000000000000
vt 0.25000000000000 0.00000000000000 0.00000000000000
vt 0.25000000000000 1.00000000000000 0.00000000000000
vt 0.37500000000000 0.00000000000000 0.00000000000000
vt 0.37500000000000 1.00000000000000 0.00000000000000
vt 0.50000000000000 0.00000000000000 0.00000000000000
vt 0.50000000000000 1.00000000000000 0.00000000000000
vt 0.62500000000000 0.00000000000000 0.00000000000000
vt 0.62500000000000 1.00000000000000 0.00000000000000
vt 0.75000000000000 0.00000000000000 0.00000000000000
vt 0.75000000000000 1.00000000000000 0.00000000000000
vt 0.87500000000000 0.00000000000000 0.00000000000000
vt 0.87500000000000 1.00000000000000 0.00000000000000
# 43 texture coordinates

o Sphere
usemtl default
f 3/1/1 11/2/1 12/3/1 4/4/1
f 4/4/2 12/3/2 13/5/2 5/6/2
f 5/6/3 13/5/3 14/7/3 6/8/3
f 6/8/4 14/7/4 15/9/4 7/10/4
f 7/10/5 15/9/5 16/11/5 8/12/5
f 8/12/6 16/11/6 17/13/6 9/14/6
f 9/14/7 17/13/7 18/15/7 10/16/7
f 10/16/8 18/15/8 11/17/8 3/18/8
f 11/2/9 19/19/9 20/20/9 12/3/9
f 12/3/10 20/20/10 21/21/10 13/5/10
f 13/5/11 21/21/11 22/22/11 14/7/11
f 14/7/12 22/22/12 23/23/12 15/9/12
f 15/9/13 23/23/13 24/24/13 16/11/13
f 16/11/14 24/24/14 25/25/14 17/13/14
f 17/13/15 25/25/15 26/26/15 18/15/15
f 18/15/16 26/26/16 19/27/16 11/17/16
f 1/28/17 3/1/17 4/4/17
f 20/20/19 19/19/19 2/29/19
f 1/30/20 4/4/20 5/6/20
f 21/21/21 20/20/21 2/31/21
f 1/32/22 5/6/22 6/8/22
f 22/22/23 21/21/23 2/33/23
f 1/34/24 6/8/24 7/10/24
f 23/23/25 22/22/25 2/35/25
f 1/36/26 7/10/26 8/12/26
f 24/24/27 23/23/27 2/37/27
f 1/38/28 8/12/28 9/14/28
f 25/25/29 24/24/29 2/39/29
f 1/40/30 9/14/30 10/16/30
f 26/26/31 25/25/31 2/41/31
f 1/42/32 10/16/32 3/18/32
f 19/27/33 26/26/33 2/43/33

