# WaveFront *.obj file (generated by CINEMA 4D)

mtllib ./Wall1.mtl

v -3.36999988555908 -3.00000000000000 -11.14561843872070
v -3.36999988555908 -1.00000000000000 -11.14561843872070
v -3.36999988555908 -0.33312886953354 -10.07999992370605
v -3.36999988555908 3.00000000000000 -10.07999992370605
v -1.12333333492279 -3.00000000000000 -11.14561843872070
v -1.12333333492279 -1.00000000000000 -11.14561843872070
v -1.12333333492279 -0.33312886953354 -10.07999992370605
v -1.12333333492279 3.00000000000000 -10.07999992370605
v 1.12333333492279 -3.00000000000000 -12.47906875610352
v 1.12333333492279 -1.00000000000000 -12.47906875610352
v 1.12333333492279 -0.33312886953354 -11.41345119476318
v 1.12333333492279 3.00000000000000 -11.41345119476318
v 3.36999988555908 -3.00000000000000 -12.47906875610352
v 3.36999988555908 -1.00000000000000 -12.47906875610352
v 3.36999988555908 -0.33312886953354 -11.41345119476318
v 3.36999988555908 3.00000000000000 -11.41345119476318
v 2.61644411087036 -3.00000000000000 -3.35999989509583
v 2.61644411087036 -1.00000000000000 -3.35999989509583
v 2.61644411087036 1.00000000000000 -3.35999989509583
v 2.61644411087036 3.00000000000000 -3.35999989509583
v 3.36999988555908 -3.00000000000000 3.35999989509583
v 3.36999988555908 -1.00000000000000 3.35999989509583
v 3.36999988555908 1.00000000000000 3.35999989509583
v 3.36999988555908 3.00000000000000 3.35999989509583
v 2.61793279647827 -3.00000000000000 10.07999992370605
v 2.61793279647827 -1.00000000000000 10.07999992370605
v 2.61793279647827 1.00000000000000 10.07999992370605
v 2.61793279647827 3.00000000000000 10.07999992370605
v 0.37126609683037 -3.00000000000000 10.07999992370605
v 0.37126609683037 -1.00000000000000 10.07999992370605
v 0.37126609683037 1.00000000000000 10.07999992370605
v 0.37126609683037 3.00000000000000 10.07999992370605
v -2.75934553146362 -3.00000000000000 10.07999992370605
v -2.75934553146362 -1.00000000000000 10.07999992370605
v -2.75934553146362 1.00000000000000 10.07999992370605
v -1.12333333492279 3.00000000000000 10.07999992370605
v -5.00601243972778 -3.00000000000000 10.07999992370605
v -5.00601243972778 -1.00000000000000 10.07999992370605
v -3.36999988555908 1.00000000000000 10.07999992370605
v -3.36999988555908 3.00000000000000 10.07999992370605
v -3.36999988555908 -3.00000000000000 3.35999989509583
v -3.36999988555908 -1.00000000000000 3.35999989509583
v -3.36999988555908 1.00000000000000 3.35999989509583
v -3.36999988555908 3.00000000000000 3.35999989509583
v -4.30326271057129 -3.00000000000000 -3.35999989509583
v -4.30326271057129 -1.00000000000000 -3.35999989509583
v -4.30326271057129 1.00000000000000 -3.35999989509583
v -4.30326271057129 3.00000000000000 -3.35999989509583
v -2.05659604072571 3.00000000000000 -3.35999989509583
v -1.12333333492279 3.00000000000000 3.35999989509583
v 1.12333333492279 3.00000000000000 -3.35999989509583
v 1.12333333492279 3.00000000000000 3.35999989509583
v -1.12333333492279 -3.00000000000000 3.35999989509583
v -1.12333333492279 -3.00000000000000 -3.35999989509583
v 1.12333333492279 -3.00000000000000 3.35999989509583
v 1.12333333492279 -3.00000000000000 -3.35999989509583
# 56 vertices

vn 0.00000000000000 0.00000000000000 -1.00000000000000
vn 0.00000000000000 0.48451477289200 -0.87478309869766
vn -0.23611213266850 0.48236238956451 -0.84355056285858
vn -0.26463180780411 0.00000000000000 -0.96434950828552
vn -0.23611213266850 0.48236238956451 -0.84355056285858
vn -0.26463183760643 0.00000000000000 -0.96434950828552
vn 0.99660307168961 0.00000000000000 0.08235447853804
vn 0.99441492557526 -0.04974365979433 0.09308347851038
vn 0.99964439868927 -0.02499448880553 -0.00929517950863
vn 0.99989324808121 0.00000000000000 -0.01461044978350
vn 1.00000000000000 0.00000000000000 -0.00010939143976
vn 0.99379575252533 0.00000000000000 0.11122042685747
vn 0.99389410018921 -0.04974145069718 0.09849007427692
vn 0.99966579675674 -0.02500101551414 -0.00657806545496
vn 0.99565094709396 0.00000000000000 0.09316238760948
vn 0.99995779991150 0.00000000000000 -0.00918592792004
vn 0.00000000000000 0.00000000000000 1.00000000000000
vn -0.97162050008774 0.00000000000000 -0.23654510080814
vn -0.96769720315933 0.17189297080040 -0.18443132936954
vn -0.99597942829132 0.08670912683010 -0.02250629663467
vn -0.99872988462448 0.00000000000000 -0.05038505792618
vn -0.99969404935837 0.02368116006255 0.00713919196278
vn -0.99995630979538 0.00000000000000 0.00934729352593
vn -0.99122589826584 0.04696996882558 -0.12355156242847
vn -0.99289208650589 0.00000000000000 -0.11901804804802
vn -0.98298984766006 0.17204529047012 -0.06427554041147
vn -0.99557232856750 0.08604515343904 0.03784139081836
vn -0.99971616268158 0.02369602955878 0.00246178265661
vn -0.99002498388290 0.04696994647384 -0.13283188641071
vn -1.00000000000000 0.00000000000000 0.00000000000000
vn -0.99762058258057 0.00000000000000 0.06894311308861
vn -0.99049371480942 0.00000000000000 -0.13755814731121
vn 0.00000000000000 1.00000000000000 0.00000000000000
vn 0.00000000000000 -1.00000000000000 0.00000000000000
# 34 normals

vt 0.00000000000000 0.00000000000000 0.00000000000000
vt 0.00000000000000 0.33333337306976 0.00000000000000
vt 0.33333334326744 0.33333337306976 0.00000000000000
vt 0.33333334326744 0.00000000000000 0.00000000000000
vt 0.66666668653488 0.33333337306976 0.00000000000000
vt 0.66666668653488 0.00000000000000 0.00000000000000
vt 1.00000000000000 0.33333337306976 0.00000000000000
vt 1.00000000000000 0.00000000000000 0.00000000000000
vt 0.00000000000000 0.66666668653488 0.00000000000000
vt 0.33333334326744 0.66666668653488 0.00000000000000
vt 0.66666668653488 0.66666668653488 0.00000000000000
vt 1.00000000000000 0.66666668653488 0.00000000000000
vt 0.00000000000000 1.00000000000000 0.00000000000000
vt 0.33333334326744 1.00000000000000 0.00000000000000
vt 0.66666668653488 1.00000000000000 0.00000000000000
vt 1.00000000000000 1.00000000000000 0.00000000000000
# 16 texture coordinates

o Cube
usemtl default
f 1/1/1 2/2/2 6/3/3 5/4/4
f 5/4/4 6/3/3 10/5/3 9/6/4
f 9/6/4 10/5/3 14/7/2 13/8/1
f 2/2/2 3/9/2 7/10/5 6/3/3
f 6/3/3 7/10/5 11/11/5 10/5/3
f 10/5/3 11/11/5 15/12/2 14/7/2
f 3/9/2 4/13/1 8/14/6 7/10/5
f 7/10/5 8/14/6 12/15/6 11/11/5
f 11/11/5 12/15/6 16/16/1 15/12/2
f 13/1/7 14/2/8 18/3/9 17/4/10
f 17/4/10 18/3/9 22/5/11 21/6/11
f 21/6/11 22/5/11 26/7/12 25/8/12
f 14/2/8 15/9/13 19/10/14 18/3/9
f 18/3/9 19/10/14 23/11/11 22/5/11
f 22/5/11 23/11/11 27/12/12 26/7/12
f 15/9/13 16/13/15 20/14/16 19/10/14
f 19/10/14 20/14/16 24/15/11 23/11/11
f 23/11/11 24/15/11 28/16/12 27/12/12
f 25/1/17 26/2/17 30/3/17 29/4/17
f 29/4/17 30/3/17 34/5/17 33/6/17
f 33/6/17 34/5/17 38/7/17 37/8/17
f 26/2/17 27/9/17 31/10/17 30/3/17
f 30/3/17 31/10/17 35/11/17 34/5/17
f 34/5/17 35/11/17 39/12/17 38/7/17
f 27/9/17 28/13/17 32/14/17 31/10/17
f 31/10/17 32/14/17 36/15/17 35/11/17
f 35/11/17 36/15/17 40/16/17 39/12/17
f 37/1/18 38/2/19 42/3/20 41/4/21
f 41/4/21 42/3/20 46/5/22 45/6/23
f 45/6/23 46/5/22 2/7/24 1/8/25
f 38/2/19 39/9/26 43/10/27 42/3/20
f 42/3/20 43/10/27 47/11/28 46/5/22
f 46/5/22 47/11/28 3/12/29 2/7/24
f 39/9/26 40/13/30 44/14/31 43/10/27
f 43/10/27 44/14/31 48/15/30 47/11/28
f 47/11/28 48/15/30 4/16/32 3/12/29
f 4/1/33 48/2/33 49/3/33 8/4/33
f 8/4/33 49/3/33 51/5/33 12/6/33
f 12/6/33 51/5/33 20/7/33 16/8/33
f 48/2/33 44/9/33 50/10/33 49/3/33
f 49/3/33 50/10/33 52/11/33 51/5/33
f 51/5/33 52/11/33 24/12/33 20/7/33
f 44/9/33 40/13/33 36/14/33 50/10/33
f 50/10/33 36/14/33 32/15/33 52/11/33
f 52/11/33 32/15/33 28/16/33 24/12/33
f 37/1/34 41/2/34 53/3/34 33/4/34
f 33/4/34 53/3/34 55/5/34 29/6/34
f 29/6/34 55/5/34 21/7/34 25/8/34
f 41/2/34 45/9/34 54/10/34 53/3/34
f 53/3/34 54/10/34 56/11/34 55/5/34
f 55/5/34 56/11/34 17/12/34 21/7/34
f 45/9/34 1/13/34 5/14/34 54/10/34
f 54/10/34 5/14/34 9/15/34 56/11/34
f 56/11/34 9/15/34 13/16/34 17/12/34

