# WaveFront *.obj file (generated by CINEMA 4D)

mtllib ./Wall2.mtl

v -4.80405569076538 -3.00000000000000 -10.07999992370605
v -4.80405569076538 -1.00000000000000 -10.07999992370605
v -3.36999988555908 -0.51543879508972 -10.07999992370605
v -3.36999988555908 3.00000000000000 -10.07999992370605
v -2.55738925933838 -3.00000000000000 -10.07999992370605
v -2.55738925933838 -1.00000000000000 -10.07999992370605
v -1.12333333492279 -0.51543879508972 -10.07999992370605
v -1.12333333492279 3.00000000000000 -10.07999992370605
v 1.12333333492279 -3.00000000000000 -10.07999992370605
v 1.12333333492279 -1.00000000000000 -10.07999992370605
v 1.12333333492279 -0.51543879508972 -10.07999992370605
v 1.12333333492279 3.00000000000000 -10.07999992370605
v 3.36999988555908 -3.00000000000000 -10.07999992370605
v 3.36999988555908 -1.00000000000000 -10.07999992370605
v 3.36999988555908 -0.51543879508972 -10.07999992370605
v 3.36999988555908 3.00000000000000 -10.07999992370605
v 2.61644411087036 -3.00000000000000 -3.35999989509583
v 2.61644411087036 -1.00000000000000 -3.35999989509583
v 2.61644411087036 1.00000000000000 -3.35999989509583
v 2.61644411087036 2.10918569564819 -3.35999989509583
v 4.61003065109253 -3.00000000000000 3.35999989509583
v 4.61003065109253 -1.00000000000000 3.35999989509583
v 4.61003065109253 1.00000000000000 3.35999989509583
v 4.61003065109253 3.00000000000000 3.35999989509583
v 2.61793279647827 -3.00000000000000 12.34583854675293
v 2.61793279647827 -1.00000000000000 12.34583854675293
v 2.61793279647827 -0.08269318193197 10.07999992370605
v 2.61793279647827 2.47677588462830 10.07999992370605
v -0.73282188177109 -3.00000000000000 13.06950569152832
v -0.73282188177109 -1.00000000000000 13.06950569152832
v 0.37126609683037 -0.08269318193197 10.07999992370605
v 0.37126609683037 2.47677588462830 10.07999992370605
v -2.22742128372192 -3.00000000000000 13.06950569152832
v -2.22742128372192 -1.00000000000000 13.06950569152832
v -1.12333333492279 -0.08269318193197 10.07999992370605
v -1.12333333492279 2.47677588462830 10.07999992370605
v -4.47408819198608 -3.00000000000000 13.06950569152832
v -4.47408819198608 -1.00000000000000 13.06950569152832
v -3.36999988555908 -0.51543879508972 10.07999992370605
v -3.36999988555908 2.47677588462830 10.07999992370605
v -3.23405718803406 -3.00000000000000 6.34950542449951
v -3.23405718803406 -1.00000000000000 6.34950542449951
v -2.12996935844421 -0.51543879508972 3.35999989509583
v -2.12996935844421 3.00000000000000 3.35999989509583
v -3.36999988555908 -3.00000000000000 -3.35999989509583
v -3.36999988555908 -1.00000000000000 -3.35999989509583
v -3.36999988555908 -0.51543879508972 -3.35999989509583
v -3.36999988555908 2.10918569564819 -3.35999989509583
v -1.12333333492279 2.10918569564819 -3.35999989509583
v 0.11669735610485 3.00000000000000 3.35999989509583
v 1.12333333492279 2.10918569564819 -3.35999989509583
v 2.36336398124695 3.00000000000000 3.35999989509583
v -0.98739063739777 -3.00000000000000 6.34950542449951
v -1.12333333492279 -3.00000000000000 -3.35999989509583
v 1.25927603244781 -3.00000000000000 6.34950542449951
v 1.12333333492279 -3.00000000000000 -3.35999989509583
# 56 vertices

vn 0.00000000000000 0.00000000000000 -1.00000000000000
vn 0.99377143383026 0.00000000000000 0.11143784970045
vn 0.99377143383026 0.00000000000000 0.11143784224987
vn 0.99609857797623 0.00000000000000 -0.08824719488621
vn 0.99609857797623 0.00000000000000 -0.08824720233679
vn 0.99760311841965 0.06329987198114 -0.02794801071286
vn 0.99938356876373 0.00000000000000 -0.03510750830173
vn 0.71039342880249 0.38835832476616 0.58695745468140
vn 0.70517361164093 0.00000000000000 0.70903462171555
vn 0.99609857797623 0.00000000000000 -0.08824717998505
vn 0.99792104959488 0.06361112743616 -0.01035429816693
vn 0.65705776214600 0.40172317624092 0.63788205385208
vn 0.99609857797623 0.00000000000000 -0.08824719488621
vn 1.00000000000000 0.00000000000000 -0.00010178842786
vn 0.59824001789093 0.00000000000000 0.80131697654724
vn 0.07570217549801 0.58460825681686 0.80777621269226
vn 0.10615182667971 0.00000000000000 0.99434995651245
vn -0.02938334643841 0.61334460973740 0.78926867246628
vn 0.00000000000000 0.00000000000000 1.00000000000000
vn -0.66569554805756 0.66276890039444 0.34290942549706
vn 0.01050198730081 0.58295834064484 0.81243413686752
vn -0.66569554805756 0.66276890039444 0.34290939569473
vn -0.98339748382568 0.00000000000000 -0.18146468698978
vn -0.92917835712433 0.36354413628578 -0.06680759787560
vn -0.99645411968231 0.00000000000000 -0.08413819968700
vn -0.94685572385788 0.31138664484024 0.08063853532076
vn -0.99372071027756 0.00000000000000 0.11188898980618
vn -0.94270622730255 0.30640196800232 0.13199536502361
vn -0.97797930240631 0.00000000000000 0.20870192348957
vn -0.93044292926788 0.36579510569572 -0.02167751453817
vn -0.94777929782867 0.31121221184731 0.06972323358059
vn -0.95189553499222 0.30562925338745 0.02203810587525
vn -0.98339748382568 0.00000000000000 -0.18146473169327
vn -1.00000000000000 0.00000000000000 0.00000000000000
vn -0.99584072828293 0.00000000000000 0.09111132472754
vn -1.00000000000000 0.00000000000000 0.00000000000000
vn 0.00000000000000 0.99132782220840 0.13141204416752
vn 0.00000000000000 1.00000000000000 0.00000000000000
vn 0.00000000000000 1.00000000000000 0.00000000375788
vn 0.00000000000000 0.99132782220840 0.13141205906868
vn 0.00000000000000 1.00000000000000 -0.00000000751576
vn 0.00000000000000 0.99963432550430 -0.02704134769738
vn 0.00000000000000 0.99963432550430 -0.02704135514796
vn 0.00000000000000 0.99963432550430 -0.02704135887325
vn 0.00000000000000 0.99698257446289 0.07762578129768
vn 0.00000000000000 0.99698257446289 0.07762577384710
vn 0.00000000000000 -1.00000000000000 0.00000000000000
# 47 normals

vt 0.00000000000000 0.00000000000000 0.00000000000000
vt 0.00000000000000 0.33333337306976 0.00000000000000
vt 0.33333334326744 0.33333337306976 0.00000000000000
vt 0.33333334326744 0.00000000000000 0.00000000000000
vt 0.66666668653488 0.33333337306976 0.00000000000000
vt 0.66666668653488 0.00000000000000 0.00000000000000
vt 1.00000000000000 0.33333337306976 0.00000000000000
vt 1.00000000000000 0.00000000000000 0.00000000000000
vt 0.00000000000000 0.66666668653488 0.00000000000000
vt 0.33333334326744 0.66666668653488 0.00000000000000
vt 0.66666668653488 0.66666668653488 0.00000000000000
vt 1.00000000000000 0.66666668653488 0.00000000000000
vt 0.00000000000000 1.00000000000000 0.00000000000000
vt 0.33333334326744 1.00000000000000 0.00000000000000
vt 0.66666668653488 1.00000000000000 0.00000000000000
vt 1.00000000000000 1.00000000000000 0.00000000000000
# 16 texture coordinates

o Wall2
usemtl default
f 1/1/1 2/2/1 6/3/1 5/4/1
f 5/4/1 6/3/1 10/5/1 9/6/1
f 9/6/1 10/5/1 14/7/1 13/8/1
f 2/2/1 3/9/1 7/10/1 6/3/1
f 6/3/1 7/10/1 11/11/1 10/5/1
f 10/5/1 11/11/1 15/12/1 14/7/1
f 3/9/1 4/13/1 8/14/1 7/10/1
f 7/10/1 8/14/1 12/15/1 11/11/1
f 11/11/1 12/15/1 16/16/1 15/12/1
f 13/1/2 14/2/3 18/3/4 17/4/5
f 17/4/5 18/3/4 22/5/6 21/6/7
f 21/6/7 22/5/6 26/7/8 25/8/9
f 14/2/3 15/9/3 19/10/10 18/3/4
f 18/3/4 19/10/10 23/11/11 22/5/6
f 22/5/6 23/11/11 27/12/12 26/7/8
f 15/9/3 16/13/3 20/14/13 19/10/10
f 19/10/10 20/14/13 24/15/14 23/11/11
f 23/11/11 24/15/14 28/16/15 27/12/12
f 25/1/9 26/2/8 30/3/16 29/4/17
f 29/4/17 30/3/16 34/5/18 33/6/19
f 33/6/19 34/5/18 38/7/20 37/8/19
f 26/2/8 27/9/12 31/10/21 30/3/16
f 30/3/16 31/10/21 35/11/18 34/5/18
f 34/5/18 35/11/18 39/12/22 38/7/20
f 27/9/12 28/13/15 32/14/19 31/10/21
f 31/10/21 32/14/19 36/15/19 35/11/18
f 35/11/18 36/15/19 40/16/19 39/12/22
f 37/1/23 38/2/20 42/3/24 41/4/25
f 41/4/25 42/3/24 46/5/26 45/6/27
f 45/6/27 46/5/26 2/7/28 1/8/29
f 38/2/20 39/9/22 43/10/30 42/3/24
f 42/3/24 43/10/30 47/11/31 46/5/26
f 46/5/26 47/11/31 3/12/32 2/7/28
f 39/9/22 40/13/33 44/14/34 43/10/30
f 43/10/30 44/14/34 48/15/35 47/11/31
f 47/11/31 48/15/35 4/16/36 3/12/32
f 4/1/37 48/2/38 49/3/39 8/4/40
f 8/4/40 49/3/39 51/5/38 12/6/40
f 12/6/40 51/5/38 20/7/41 16/8/37
f 48/2/38 44/9/42 50/10/42 49/3/39
f 49/3/39 50/10/42 52/11/43 51/5/38
f 51/5/38 52/11/43 24/12/44 20/7/41
f 44/9/42 40/13/45 36/14/45 50/10/42
f 50/10/42 36/14/45 32/15/45 52/11/43
f 52/11/43 32/15/45 28/16/46 24/12/44
f 37/1/47 41/2/47 53/3/47 33/4/47
f 33/4/47 53/3/47 55/5/47 29/6/47
f 29/6/47 55/5/47 21/7/47 25/8/47
f 41/2/47 45/9/47 54/10/47 53/3/47
f 53/3/47 54/10/47 56/11/47 55/5/47
f 55/5/47 56/11/47 17/12/47 21/7/47
f 45/9/47 1/13/47 5/14/47 54/10/47
f 54/10/47 5/14/47 9/15/47 56/11/47
f 56/11/47 9/15/47 13/16/47 17/12/47

v -3.36999988555908 -3.00000000000000 -10.07999992370605
v -3.36999988555908 -1.00000000000000 -10.07999992370605
v -3.36999988555908 1.00000000000000 -10.07999992370605
v -1.12333333492279 -3.00000000000000 -10.07999992370605
v -1.12333333492279 -1.00000000000000 -10.07999992370605
v -1.12333333492279 1.00000000000000 -10.07999992370605
v 1.12333333492279 1.00000000000000 -10.07999992370605
v 3.36999988555908 1.00000000000000 -10.07999992370605
v 2.61644411087036 3.00000000000000 -3.35999989509583
v 3.36999988555908 -3.00000000000000 3.35999989509583
v 3.36999988555908 -1.00000000000000 3.35999989509583
v 3.36999988555908 1.00000000000000 3.35999989509583
v 3.36999988555908 3.00000000000000 3.35999989509583
v 2.61793279647827 -3.00000000000000 10.07999992370605
v 2.61793279647827 -1.00000000000000 10.07999992370605
v 2.61793279647827 1.00000000000000 10.07999992370605
v 2.61793279647827 3.00000000000000 10.07999992370605
v 0.37126609683037 -3.00000000000000 10.07999992370605
v 0.37126609683037 -1.00000000000000 10.07999992370605
v 0.37126609683037 1.00000000000000 10.07999992370605
v 0.37126609683037 3.00000000000000 10.07999992370605
v -1.12333333492279 -3.00000000000000 10.07999992370605
v -1.12333333492279 -1.00000000000000 10.07999992370605
v -1.12333333492279 1.00000000000000 10.07999992370605
v -1.12333333492279 3.00000000000000 10.07999992370605
v -3.36999988555908 -3.00000000000000 10.07999992370605
v -3.36999988555908 -1.00000000000000 10.07999992370605
v -3.36999988555908 1.00000000000000 10.07999992370605
v -3.36999988555908 3.00000000000000 10.07999992370605
v -3.36999988555908 -3.00000000000000 3.35999989509583
v -3.36999988555908 -1.00000000000000 3.35999989509583
v -3.36999988555908 1.00000000000000 3.35999989509583
v -3.36999988555908 3.00000000000000 3.35999989509583
v -3.36999988555908 1.00000000000000 -3.35999989509583
v -3.36999988555908 3.00000000000000 -3.35999989509583
v -1.12333333492279 3.00000000000000 -3.35999989509583
v -1.12333333492279 3.00000000000000 3.35999989509583
v 1.12333333492279 3.00000000000000 -3.35999989509583
v 1.12333333492279 3.00000000000000 3.35999989509583
v -1.12333333492279 -3.00000000000000 3.35999989509583
v 1.12333333492279 -3.00000000000000 3.35999989509583
# 41 vertices

vn 1.00000000000000 0.00000000000000 0.00000000000000
vn 1.00000000000000 0.00000000000000 -0.00010939143976
vn 0.99379575252533 0.00000000000000 0.11122042685747
# 3 normals

# 0 texture coordinate

o Base
usemtl default
f 57/1/1 58/2/1 61/3/1 60/4/1
f 60/4/1 61/3/1 10/5/1 9/6/1
f 9/6/1 10/5/1 14/7/1 13/8/1
f 58/2/1 59/9/1 62/10/1 61/3/1
f 61/3/1 62/10/1 63/11/1 10/5/1
f 10/5/1 63/11/1 64/12/1 14/7/1
f 59/9/1 4/13/1 8/14/1 62/10/1
f 62/10/1 8/14/1 12/15/1 63/11/1
f 63/11/1 12/15/1 16/16/1 64/12/1
f 13/1/2 14/2/2 18/3/48 17/4/48
f 17/4/48 18/3/48 67/5/49 66/6/49
f 66/6/49 67/5/49 71/7/50 70/8/50
f 14/2/2 64/9/2 19/10/48 18/3/48
f 18/3/48 19/10/48 68/11/49 67/5/49
f 67/5/49 68/11/49 72/12/50 71/7/50
f 64/9/2 16/13/2 65/14/48 19/10/48
f 19/10/48 65/14/48 69/15/49 68/11/49
f 68/11/49 69/15/49 73/16/50 72/12/50
f 70/1/19 71/2/19 75/3/19 74/4/19
f 74/4/19 75/3/19 79/5/19 78/6/19
f 78/6/19 79/5/19 83/7/19 82/8/19
f 71/2/19 72/9/19 76/10/19 75/3/19
f 75/3/19 76/10/19 80/11/19 79/5/19
f 79/5/19 80/11/19 84/12/19 83/7/19
f 72/9/19 73/13/19 77/14/19 76/10/19
f 76/10/19 77/14/19 81/15/19 80/11/19
f 80/11/19 81/15/19 85/16/19 84/12/19
f 82/1/36 83/2/36 87/3/36 86/4/36
f 86/4/36 87/3/36 46/5/36 45/6/36
f 45/6/36 46/5/36 58/7/36 57/8/36
f 83/2/36 84/9/36 88/10/36 87/3/36
f 87/3/36 88/10/36 90/11/36 46/5/36
f 46/5/36 90/11/36 59/12/36 58/7/36
f 84/9/36 85/13/36 89/14/36 88/10/36
f 88/10/36 89/14/36 91/15/36 90/11/36
f 90/11/36 91/15/36 4/16/36 59/12/36
f 4/1/38 91/2/38 92/3/38 8/4/38
f 8/4/38 92/3/38 94/5/38 12/6/38
f 12/6/38 94/5/38 65/7/38 16/8/38
f 91/2/38 89/9/38 93/10/38 92/3/38
f 92/3/38 93/10/38 95/11/38 94/5/38
f 94/5/38 95/11/38 69/12/38 65/7/38
f 89/9/38 85/13/38 81/14/38 93/10/38
f 93/10/38 81/14/38 77/15/38 95/11/38
f 95/11/38 77/15/38 73/16/38 69/12/38
f 82/1/47 86/2/47 96/3/47 78/4/47
f 78/4/47 96/3/47 97/5/47 74/6/47
f 74/6/47 97/5/47 66/7/47 70/8/47
f 86/2/47 45/9/47 54/10/47 96/3/47
f 96/3/47 54/10/47 56/11/47 97/5/47
f 97/5/47 56/11/47 17/12/47 66/7/47
f 45/9/47 57/13/47 60/14/47 54/10/47
f 54/10/47 60/14/47 9/15/47 56/11/47
f 56/11/47 9/15/47 13/16/47 17/12/47

