# WaveFront *.obj file (generated by CINEMA 4D)

mtllib ./Wall5.mtl

v -3.36999988555908 -3.00000000000000 -10.07999992370605
v -3.36999988555908 -1.00000000000000 -7.26347875595093
v -3.36999988555908 1.00000000000000 -7.26347875595093
v -3.36999988555908 3.00000000000000 -7.26347875595093
v -1.12333333492279 -3.00000000000000 -10.07999992370605
v -1.12333333492279 -1.00000000000000 -10.07999992370605
v -1.12333333492279 1.00000000000000 -7.26347875595093
v -1.12333333492279 3.00000000000000 -7.26347875595093
v 1.12333333492279 -3.00000000000000 -10.07999992370605
v 1.12333333492279 -1.00000000000000 -10.07999992370605
v 1.12333333492279 1.00000000000000 -7.26347875595093
v 1.12333333492279 3.00000000000000 -7.26347875595093
v 3.36999988555908 -3.00000000000000 -10.07999992370605
v 3.36999988555908 -1.00000000000000 -10.07999992370605
v 3.36999988555908 1.00000000000000 -7.26347875595093
v 3.36999988555908 3.00000000000000 -7.26347875595093
v 2.61644411087036 -3.00000000000000 -3.35999989509583
v 2.61644411087036 -1.00000000000000 -3.35999989509583
v 2.61644411087036 1.00000000000000 -3.35999989509583
v 2.61644411087036 3.00000000000000 -3.35999989509583
v 3.36999988555908 -3.00000000000000 3.35999989509583
v 3.36999988555908 -1.00000000000000 3.35999989509583
v 3.36999988555908 1.00000000000000 3.35999989509583
v 3.59744143486023 3.00000000000000 3.35999989509583
v 2.61793279647827 -3.00000000000000 10.07999992370605
v 2.61793279647827 -1.00000000000000 10.07999992370605
v 2.61793279647827 1.00000000000000 7.70872068405151
v 2.84537434577942 3.00000000000000 7.70872068405151
v 0.37126609683037 -3.00000000000000 10.07999992370605
v 0.37126609683037 -1.00000000000000 10.07999992370605
v 0.37126609683037 1.00000000000000 7.70872068405151
v 0.37126609683037 3.00000000000000 7.70872068405151
v -1.12333333492279 -3.00000000000000 10.07999992370605
v -1.12333333492279 -1.00000000000000 10.07999992370605
v -1.12333333492279 1.00000000000000 7.70872068405151
v -1.12333333492279 3.00000000000000 7.70872068405151
v -3.36999988555908 -3.00000000000000 10.07999992370605
v -3.36999988555908 -1.00000000000000 10.07999992370605
v -3.36999988555908 1.00000000000000 7.70872068405151
v -3.36999988555908 3.00000000000000 7.70872068405151
v -2.20230484008789 -3.00000000000000 3.35999989509583
v -2.20230484008789 -1.00000000000000 3.35999989509583
v -2.20230484008789 1.00000000000000 3.35999989509583
v -2.20230484008789 3.00000000000000 3.35999989509583
v -4.52983760833740 -3.00000000000000 -1.56347048282623
v -4.52983760833740 -1.00000000000000 -1.56347048282623
v -4.52983760833740 1.00000000000000 -1.56347048282623
v -4.52983760833740 3.00000000000000 -1.56347048282623
v -2.28317093849182 3.00000000000000 -1.56347048282623
v 0.04436182975769 3.00000000000000 3.35999989509583
v 1.12333333492279 3.00000000000000 -3.35999989509583
v 1.12333333492279 3.00000000000000 3.35999989509583
v 0.04436182975769 -3.00000000000000 3.35999989509583
v -2.28317093849182 -3.00000000000000 -1.56347048282623
v 2.29102849960327 -3.00000000000000 3.35999989509583
v -0.03650434315205 -3.00000000000000 -1.56347048282623
v -2.28317093849182 4.44999980926514 -1.56347048282623
v 0.04436182975769 4.44999980926514 3.35999989509583
v 1.12333333492279 4.44999980926514 -3.35999989509583
v 1.12333333492279 4.44999980926514 3.35999989509583
# 60 vertices

vn -0.76065444946289 0.27503880858421 -0.58801233768463
vn -0.76160466670990 0.24855716526508 -0.59847950935364
vn -0.18435868620872 0.42637550830841 -0.88555961847305
vn -0.17785602807999 0.19979158043861 -0.96356141567230
vn 0.00000000000000 0.45881706476212 -0.88853073120117
vn 0.00000000000000 0.00000000000000 -1.00000000000000
vn -0.70930224657059 0.11860457807779 -0.69485485553741
vn -0.09375970810652 0.32836213707924 -0.93988692760468
vn -0.63269507884979 0.00000000000000 -0.77440100908279
vn 0.99377143383026 0.00000000000000 0.11143784970045
vn 0.98931974172592 -0.06522892415524 0.13035203516483
vn 0.99941664934158 -0.03283516317606 0.00939085241407
vn 1.00000000000000 0.00000000000000 0.00000000000000
vn 0.99983692169189 0.01650878228247 0.00731699541211
vn 1.00000000000000 0.00000000000000 -0.00010939143976
vn 0.99148261547089 0.03279014676809 0.12604354321957
vn 0.99379575252533 0.00000000000000 0.11122042685747
vn 0.98336917161942 -0.06522979587317 0.16949984431267
vn 0.99857294559479 -0.04716904461384 0.02504205703735
vn 0.99950611591339 -0.02582010999322 0.01791112683713
vn 0.98754370212555 -0.02300408855081 0.15565413236618
vn 0.98187154531479 0.00000000000000 0.18954764306545
vn 0.99910449981689 -0.02849546261132 0.03127704560757
vn 0.99617832899094 -0.08477779477835 0.02101094648242
vn 0.97924423217773 -0.11136034131050 0.16935040056705
vn 0.00000000000000 0.00000000000000 1.00000000000000
vn 0.00000000000000 0.42146971821785 0.90684247016907
vn 0.00000000000000 0.42146974802017 0.90684247016907
vn -0.98523652553558 0.00000000000000 -0.17119880020618
vn -0.97851020097733 -0.07459762692451 -0.19223168492317
vn -0.99146276712418 -0.03922979161143 0.12434893101454
vn -0.99093103408813 0.00000000000000 0.13437150418758
vn -0.99140280485153 0.02467171661556 0.12849818170071
vn -0.98938435316086 0.04922210425138 0.13673235476017
vn -0.96877914667130 -0.07459933310747 -0.23643572628498
vn -0.99400949478149 -0.03953508287668 0.10189233720303
vn -0.99275678396225 0.00000000000000 0.12014167010784
vn -0.96578913927078 0.00000000000000 -0.25932854413986
vn -0.99598515033722 0.00000000000000 0.08951889723539
vn 0.00000000000000 1.00000000000000 0.00000000000000
vn 0.00000000000000 -1.00000000000000 0.00000000000000
vn -0.46648484468460 0.00000000000000 -0.88452917337418
vn 1.00000000000000 0.00000000000000 0.00000000000000
vn -0.53507441282272 0.00000000000000 0.84480494260788
vn -0.90406703948975 0.00000000000000 0.42739072442055
# 45 normals

vt 0.00000000000000 0.00000000000000 0.00000000000000
vt 0.00000000000000 0.33333337306976 0.00000000000000
vt 0.33333334326744 0.33333337306976 0.00000000000000
vt 0.33333334326744 0.00000000000000 0.00000000000000
vt 0.66666668653488 0.33333337306976 0.00000000000000
vt 0.66666668653488 0.00000000000000 0.00000000000000
vt 1.00000000000000 0.33333337306976 0.00000000000000
vt 1.00000000000000 0.00000000000000 0.00000000000000
vt 0.00000000000000 0.66666668653488 0.00000000000000
vt 0.33333334326744 0.66666668653488 0.00000000000000
vt 0.66666668653488 0.66666668653488 0.00000000000000
vt 1.00000000000000 0.66666668653488 0.00000000000000
vt 0.00000000000000 1.00000000000000 0.00000000000000
vt 0.33333334326744 1.00000000000000 0.00000000000000
vt 0.66666668653488 1.00000000000000 0.00000000000000
vt 1.00000000000000 1.00000000000000 0.00000000000000
# 16 texture coordinates

o Base.1
usemtl default
f 1/1/1 2/2/2 6/3/3 5/4/4
f 5/4/4 6/3/3 10/5/5 9/6/6
f 9/6/6 10/5/5 14/7/5 13/8/6
f 2/2/2 3/9/7 7/10/8 6/3/3
f 6/3/3 7/10/8 11/11/5 10/5/5
f 10/5/5 11/11/5 15/12/5 14/7/5
f 3/9/7 4/13/9 8/14/6 7/10/8
f 7/10/8 8/14/6 12/15/6 11/11/5
f 11/11/5 12/15/6 16/16/6 15/12/5
f 13/1/10 14/2/11 18/3/12 17/4/13
f 17/4/13 18/3/12 22/5/14 21/6/15
f 21/6/15 22/5/14 26/7/16 25/8/17
f 14/2/11 15/9/18 19/10/19 18/3/12
f 18/3/12 19/10/19 23/11/20 22/5/14
f 22/5/14 23/11/20 27/12/21 26/7/16
f 15/9/18 16/13/22 20/14/23 19/10/19
f 19/10/19 20/14/23 24/15/24 23/11/20
f 23/11/20 24/15/24 28/16/25 27/12/21
f 25/1/26 26/2/27 30/3/28 29/4/26
f 29/4/26 30/3/28 34/5/28 33/6/26
f 33/6/26 34/5/28 38/7/27 37/8/26
f 26/2/27 27/9/27 31/10/28 30/3/28
f 30/3/28 31/10/28 35/11/28 34/5/28
f 34/5/28 35/11/28 39/12/27 38/7/27
f 27/9/27 28/13/26 32/14/26 31/10/28
f 31/10/28 32/14/26 36/15/26 35/11/28
f 35/11/28 36/15/26 40/16/26 39/12/27
f 37/1/29 38/2/30 42/3/31 41/4/32
f 41/4/32 42/3/31 46/5/33 45/6/34
f 45/6/34 46/5/33 2/7/2 1/8/1
f 38/2/30 39/9/35 43/10/36 42/3/31
f 42/3/31 43/10/36 47/11/37 46/5/33
f 46/5/33 47/11/37 3/12/7 2/7/2
f 39/9/35 40/13/38 44/14/39 43/10/36
f 43/10/36 44/14/39 48/15/37 47/11/37
f 47/11/37 48/15/37 4/16/9 3/12/7
f 4/1/40 48/2/40 49/3/40 8/4/40
f 8/4/40 49/3/40 51/5/40 12/6/40
f 12/6/40 51/5/40 20/7/40 16/8/40
f 48/2/40 44/9/40 50/10/40 49/3/40
f 57/3/40 58/10/40 60/11/40 59/5/40
f 51/5/40 52/11/40 24/12/40 20/7/40
f 44/9/40 40/13/40 36/14/40 50/10/40
f 50/10/40 36/14/40 32/15/40 52/11/40
f 52/11/40 32/15/40 28/16/40 24/12/40
f 37/1/41 41/2/41 53/3/41 33/4/41
f 33/4/41 53/3/41 55/5/41 29/6/41
f 29/6/41 55/5/41 21/7/41 25/8/41
f 41/2/41 45/9/41 54/10/41 53/3/41
f 53/3/41 54/10/41 56/11/41 55/5/41
f 55/5/41 56/11/41 17/12/41 21/7/41
f 45/9/41 1/13/41 5/14/41 54/10/41
f 54/10/41 5/14/41 9/15/41 56/11/41
f 56/11/41 9/15/41 13/16/41 17/12/41
f 49/3/42 57/3/42 59/5/42 51/5/42
f 51/5/43 59/5/43 60/11/43 52/11/43
f 52/11/26 60/11/26 58/10/44 50/10/44
f 50/10/44 58/10/44 57/3/45 49/3/45

v -3.36999988555908 -1.00000000000000 -10.07999992370605
v -3.36999988555908 1.00000000000000 -10.07999992370605
v -3.36999988555908 3.00000000000000 -10.07999992370605
v -1.12333333492279 1.00000000000000 -10.07999992370605
v -1.12333333492279 3.00000000000000 -10.07999992370605
v 1.12333333492279 1.00000000000000 -10.07999992370605
v 1.12333333492279 3.00000000000000 -10.07999992370605
v 3.36999988555908 1.00000000000000 -10.07999992370605
v 3.36999988555908 3.00000000000000 -10.07999992370605
v 3.36999988555908 3.00000000000000 3.35999989509583
v 2.61793279647827 1.00000000000000 10.07999992370605
v 2.61793279647827 3.00000000000000 10.07999992370605
v 0.37126609683037 1.00000000000000 10.07999992370605
v 0.37126609683037 3.00000000000000 10.07999992370605
v -1.12333333492279 1.00000000000000 10.07999992370605
v -1.12333333492279 3.00000000000000 10.07999992370605
v -3.36999988555908 1.00000000000000 10.07999992370605
v -3.36999988555908 3.00000000000000 10.07999992370605
v -3.36999988555908 -3.00000000000000 3.35999989509583
v -3.36999988555908 -1.00000000000000 3.35999989509583
v -3.36999988555908 1.00000000000000 3.35999989509583
v -3.36999988555908 3.00000000000000 3.35999989509583
v -3.36999988555908 -3.00000000000000 -3.35999989509583
v -3.36999988555908 -1.00000000000000 -3.35999989509583
v -3.36999988555908 1.00000000000000 -3.35999989509583
v -3.36999988555908 3.00000000000000 -3.35999989509583
v -1.12333333492279 3.00000000000000 -3.35999989509583
v -1.12333333492279 3.00000000000000 3.35999989509583
v -1.12333333492279 -3.00000000000000 3.35999989509583
v -1.12333333492279 -3.00000000000000 -3.35999989509583
v 1.12333333492279 -3.00000000000000 3.35999989509583
v 1.12333333492279 -3.00000000000000 -3.35999989509583
# 32 vertices

vn -1.00000000000000 0.00000000000000 0.00000000000000
# 1 normal

# 0 texture coordinate

o Base
usemtl default
f 1/1/6 61/2/6 6/3/6 5/4/6
f 5/4/6 6/3/6 10/5/6 9/6/6
f 9/6/6 10/5/6 14/7/6 13/8/6
f 61/2/6 62/9/6 64/10/6 6/3/6
f 6/3/6 64/10/6 66/11/6 10/5/6
f 10/5/6 66/11/6 68/12/6 14/7/6
f 62/9/6 63/13/6 65/14/6 64/10/6
f 64/10/6 65/14/6 67/15/6 66/11/6
f 66/11/6 67/15/6 69/16/6 68/12/6
f 13/1/10 14/2/10 18/3/13 17/4/13
f 17/4/13 18/3/13 22/5/15 21/6/15
f 21/6/15 22/5/15 26/7/17 25/8/17
f 14/2/10 68/9/10 19/10/13 18/3/13
f 18/3/13 19/10/13 23/11/15 22/5/15
f 22/5/15 23/11/15 71/12/17 26/7/17
f 68/9/10 69/13/10 20/14/13 19/10/13
f 19/10/13 20/14/13 70/15/15 23/11/15
f 23/11/15 70/15/15 72/16/17 71/12/17
f 25/1/26 26/2/26 30/3/26 29/4/26
f 29/4/26 30/3/26 34/5/26 33/6/26
f 33/6/26 34/5/26 38/7/26 37/8/26
f 26/2/26 71/9/26 73/10/26 30/3/26
f 30/3/26 73/10/26 75/11/26 34/5/26
f 34/5/26 75/11/26 77/12/26 38/7/26
f 71/9/26 72/13/26 74/14/26 73/10/26
f 73/10/26 74/14/26 76/15/26 75/11/26
f 75/11/26 76/15/26 78/16/26 77/12/26
f 37/1/46 38/2/46 80/3/46 79/4/46
f 79/4/46 80/3/46 84/5/46 83/6/46
f 83/6/46 84/5/46 61/7/46 1/8/46
f 38/2/46 77/9/46 81/10/46 80/3/46
f 80/3/46 81/10/46 85/11/46 84/5/46
f 84/5/46 85/11/46 62/12/46 61/7/46
f 77/9/46 78/13/46 82/14/46 81/10/46
f 81/10/46 82/14/46 86/15/46 85/11/46
f 85/11/46 86/15/46 63/16/46 62/12/46
f 63/1/40 86/2/40 87/3/40 65/4/40
f 65/4/40 87/3/40 51/5/40 67/6/40
f 67/6/40 51/5/40 20/7/40 69/8/40
f 86/2/40 82/9/40 88/10/40 87/3/40
f 87/3/40 88/10/40 52/11/40 51/5/40
f 51/5/40 52/11/40 70/12/40 20/7/40
f 82/9/40 78/13/40 76/14/40 88/10/40
f 88/10/40 76/14/40 74/15/40 52/11/40
f 52/11/40 74/15/40 72/16/40 70/12/40
f 37/1/41 79/2/41 89/3/41 33/4/41
f 33/4/41 89/3/41 91/5/41 29/6/41
f 29/6/41 91/5/41 21/7/41 25/8/41
f 79/2/41 83/9/41 90/10/41 89/3/41
f 89/3/41 90/10/41 92/11/41 91/5/41
f 91/5/41 92/11/41 17/12/41 21/7/41
f 83/9/41 1/13/41 5/14/41 90/10/41
f 90/10/41 5/14/41 9/15/41 92/11/41
f 92/11/41 9/15/41 13/16/41 17/12/41

